<?xml version="1.0" encoding="UTF-8" standalone="no"?>
<svg
   version="1.1"
   width="1024"
   height="1024"
   id="svg102"
   sodipodi:docname="shodh_logo_nobackground.svg"
   inkscape:version="1.4.2 (f4327f4, 2025-05-13)"
   inkscape:export-filename="shodh_logo.png"
   inkscape:export-xdpi="96"
   inkscape:export-ydpi="96"
   xmlns:inkscape="http://www.inkscape.org/namespaces/inkscape"
   xmlns:sodipodi="http://sodipodi.sourceforge.net/DTD/sodipodi-0.dtd"
   xmlns="http://www.w3.org/2000/svg"
   xmlns:svg="http://www.w3.org/2000/svg">
  <defs
     id="defs102">
    <linearGradient
       id="linearGradient102">
      <stop
         style="stop-color:#2a7fff;stop-opacity:1;"
         offset="0"
         id="stop104" />
      <stop
         style="stop-color:#8c7c00;stop-opacity:0.23548922;"
         offset="1"
         id="stop105" />
    </linearGradient>
  </defs>
  <sodipodi:namedview
     id="namedview102"
     pagecolor="#ffffff"
     bordercolor="#000000"
     borderopacity="0.25"
     inkscape:showpageshadow="2"
     inkscape:pageopacity="0.0"
     inkscape:pagecheckerboard="0"
     inkscape:deskcolor="#d1d1d1"
     inkscape:zoom="0.55726091"
     inkscape:cx="684.59853"
     inkscape:cy="573.34005"
     inkscape:window-width="1920"
     inkscape:window-height="1009"
     inkscape:window-x="-8"
     inkscape:window-y="-8"
     inkscape:window-maximized="1"
     inkscape:current-layer="svg102" />
  <g
     id="g102"
     transform="matrix(0.88386081,0,0,0.88386081,5.8782232,51.01768)">
    <g
       id="g107"
       transform="translate(22.333163)">
      <path
         d="m 0,0 c 25.001725,-0.01373754 50.003438,-0.01284235 75.005164,-0.00136471 1.992041,9.0775e-4 3.984081,0.00177704 5.976122,0.00260735 25.626204,0.01076807 51.252184,0.04519219 76.878254,0.13085079 10.66558,0.0351009 21.33102,0.0600907 31.99666,0.0634632 9.54079,0.003039 19.08136,0.0234179 28.62206,0.0649679 4.98417,0.0211433 9.96802,0.0340196 14.95223,0.0256292 4.62311,-0.007528 9.24556,0.008231 13.86855,0.0419064 1.68462,0.008212 3.36929,0.008008 5.0539,-0.001463 C 261.3043,0.28123753 268.55391,0.41046392 276,6 c 1.14072,0.7152483 2.2858,1.4236526 3.4375,2.1210938 1.18987,0.7684761 2.37722,1.5408747 3.5625,2.3164062 1.03097,0.670232 1.03097,0.670232 2.08276,1.354004 8.85281,5.780935 17.63151,11.675219 26.42298,17.548798 11.3946,7.616196 11.3946,7.616196 22.86584,15.116241 1.57461,1.02183 3.14217,2.054605 4.70215,3.098633 4.0161,2.671403 8.02227,5.032337 12.34424,7.179199 17.18949,9.052525 21.42461,22.44202 27.1167,39.883789 1.35106,4.105527 2.85388,8.134626 4.43799,12.155276 0.25095,0.63748 0.50189,1.27497 0.76045,1.93178 0.51511,1.30708 1.0305,2.61405 1.54616,3.92091 14.26852,36.41433 27.26245,73.38 39.70512,110.45259 1.62449,4.82257 3.33713,9.60459 5.15623,14.3578 2.23137,6.65605 3.16047,12.42063 3.04297,19.39551 -0.007,0.85794 -0.0147,1.71587 -0.0223,2.59981 -0.1257,10.53312 -0.55739,21.05906 -0.96272,31.58427 -0.26306,7.10059 -0.47728,14.20286 -0.69946,21.30482 -0.27143,8.61735 -0.60345,17.22914 -1.007,25.84133 -0.27572,5.94748 -0.5024,11.89571 -0.69673,17.84639 -0.11923,3.58561 -0.26201,7.16672 -0.46278,10.74877 -1.69227,15.50125 -1.69227,15.50125 3.40549,29.35611 3.10356,2.95633 6.4986,4.86722 10.26196,6.88647 1.84283,1.4412 3.66137,2.91485 5.4375,4.4375 0.88172,0.71801 1.76344,1.43602 2.67187,2.17578 5.70349,4.70923 11.29534,9.54987 16.89063,14.38672 0.75281,0.64969 1.50562,1.29937 2.28125,1.96875 2.87572,2.49858 5.70445,5.01768 8.46875,7.64062 0.48573,0.45682 0.97147,0.91363 1.47192,1.38428 1.39525,1.31506 2.78031,2.6409 4.1648,3.96729 2.81319,2.19504 4.05666,3.07105 7.61328,3.03906 2.50376,-1.14354 4.67395,-2.31509 7,-3.75 1.41382,-0.82946 2.82927,-1.65614 4.24609,-2.48047 0.7591,-0.44521 1.5182,-0.89042 2.3003,-1.34912 4.45894,-2.58131 8.97772,-5.04468 13.51611,-7.48291 1.31968,-0.73332 1.31968,-0.73332 2.66602,-1.48145 6.01218,-3.21277 10.20781,-4.317 17.0371,-2.87011 1.22977,0.39058 1.22977,0.39058 2.48438,0.78906 1.24523,0.38285 1.24523,0.38285 2.51562,0.77344 C 546,425 546,425 549,427 c 1.01812,3.05435 1.13258,5.144 1.14526,8.3418 0.01,1.63684 0.01,1.63684 0.0193,3.30676 0.002,1.76724 0.002,1.76724 0.003,3.57019 0.003,1.20942 0.007,2.41885 0.0101,3.66492 0.005,2.55879 0.007,5.11759 0.007,7.67639 0.002,3.9241 0.0204,7.84792 0.0393,11.77197 0.003,2.48307 0.005,4.96615 0.006,7.44922 0.007,1.17816 0.0144,2.35633 0.0218,3.57019 -0.003,1.09123 -0.006,2.18246 -0.009,3.30676 0.002,1.44204 0.002,1.44204 0.004,2.91321 C 550,485 550,485 548,488 c -5.00983,1.33859 -10.17712,1.14454 -15.32813,1.13281 -0.92193,0.002 -1.84386,0.003 -2.79373,0.005 -3.04276,0.002 -6.08539,-0.004 -9.12814,-0.0125 -1.04424,-0.003 -2.08848,-0.005 -3.16437,-0.008 -6.70194,-0.019 -13.40369,-0.0552 -20.10553,-0.0977 -3.49109,-0.0197 -6.98213,-0.0314 -10.47326,-0.0416 -5.6999,-0.0192 -11.39898,-0.0662 -17.09851,-0.13263 -2.17385,-0.0218 -4.34779,-0.0354 -6.52173,-0.0404 -3.05411,-0.009 -6.10633,-0.0499 -9.16004,-0.098 -1.33468,0.006 -1.33468,0.006 -2.69632,0.0119 -7.98051,-0.18497 -14.38643,-2.98517 -20.40524,-8.21892 -0.70125,-0.825 -1.4025,-1.65 -2.125,-2.5 -0.65742,-0.71543 -1.31484,-1.43086 -1.99219,-2.16797 -2.39148,-3.3732 -3.33269,-6.68242 -4.25781,-10.64453 -0.17273,-0.69287 -0.34547,-1.38574 -0.52344,-2.09961 C 421.8062,461.39474 421.40147,459.69773 421,458 c -0.33,0 -0.66,0 -1,0 -0.24234,1.1202 -0.48469,2.24039 -0.73438,3.39453 -0.33772,1.47285 -0.6763,2.94549 -1.01562,4.41797 -0.15727,0.73799 -0.31453,1.47598 -0.47656,2.23633 -0.74809,3.17938 -1.42113,5.55143 -3.60157,8.02539 C 412,477 412,477 409.51953,477.125 c -3.74671,-1.67295 -5.02422,-4.62954 -6.83203,-8.125 -0.38535,-0.71479 -0.7707,-1.42957 -1.16772,-2.16602 -2.999,-5.63793 -5.78233,-11.38228 -8.4292,-17.19336 -2.43841,-5.3513 -5.0586,-10.60596 -7.6971,-15.8605 -4.77671,-9.52104 -9.46117,-19.08738 -14.14348,-28.65512 -0.48522,-0.99123 -0.97044,-1.98246 -1.47037,-3.00372 -6.5643,-13.42058 -12.99869,-26.88163 -19.19369,-40.47675 -3.94052,-8.64317 -8.07733,-17.19283 -12.19629,-25.75195 -1.46548,-3.05043 -2.92448,-6.10389 -4.38184,-9.15821 -0.49298,-1.03294 -0.98597,-2.06588 -1.49389,-3.13012 -0.93739,-1.9645 -1.87443,-3.92917 -2.81104,-5.89404 -1.96173,-4.10685 -3.94348,-8.19486 -6.01929,-12.24537 C 322,302 322,302 322,300 c -1.15887,-0.0825 -2.31773,-0.165 -3.51172,-0.25 -4.72207,-0.59091 -8.22742,-2.38456 -12.30078,-4.75 -4.93665,-2.83311 -4.93665,-2.83311 -10.1875,-5 2.04051,12.38777 4.29658,24.71236 6.875,37 3.20797,15.3024 6.21307,30.63878 9.125,46 0.25064,1.32055 0.25064,1.32055 0.50635,2.66779 1.11187,5.86124 2.21796,11.72354 3.31793,17.58703 0.36554,1.94654 0.73218,3.89287 1.09998,5.83899 0.51582,2.73239 1.02688,5.46564 1.53668,8.19916 0.15593,0.8215 0.31187,1.643 0.47253,2.48939 C 319.57903,413.269 320,416.44096 320,420 c -3.665,-1.4679 -5.23081,-3.32348 -7.43359,-6.55859 -0.64244,-0.93393 -1.28488,-1.86786 -1.94678,-2.83008 -0.67885,-1.00612 -1.35771,-2.01223 -2.05713,-3.04883 -0.70721,-1.03318 -1.41442,-2.06637 -2.14307,-3.13086 -1.45103,-2.12162 -2.89829,-4.24582 -4.34179,-6.37256 -1.87952,-2.76737 -3.77005,-5.52663 -5.66748,-8.28174 -4.94842,-7.18959 -9.85975,-14.40461 -14.72266,-21.65234 -0.71801,-1.06992 -1.43602,-2.13984 -2.17578,-3.24219 -2.14642,-3.26567 -4.17668,-6.59709 -6.21094,-9.93359 -2.89052,-4.73282 -5.87685,-9.38844 -8.95703,-14 -0.39416,-0.59066 -0.78832,-1.18132 -1.19443,-1.78987 -0.39756,-0.59569 -0.79513,-1.19137 -1.20474,-1.8051 C 254.54073,326.26029 247.35042,315.2654 242,303 c -6.28745,0.43205 -11.93567,1.21637 -18,3 -3.4375,0.125 -3.4375,0.125 -6,0 -0.1302,0.81211 -0.26039,1.62422 -0.39453,2.46094 -0.69627,4.06981 -1.48248,8.11568 -2.29297,12.16406 -0.17588,0.87858 -0.35175,1.75715 -0.53296,2.66235 -1.39134,6.89577 -2.85647,13.77416 -4.34204,20.65015 -2.85651,13.2363 -5.62766,26.49005 -8.38376,39.74759 -0.48896,2.35158 -0.97847,4.70304 -1.46857,7.05438 -1.34941,6.47621 -2.68884,12.9543 -4.00894,19.43656 -0.36833,1.80509 -0.73921,3.60968 -1.1134,5.41357 -0.46205,2.23396 -0.91192,4.46996 -1.35736,6.70727 -0.2421,1.19464 -0.48421,2.38928 -0.73364,3.62012 -0.37793,3.13359 -0.1998,5.06255 0.62817,8.08301 0.2985,1.11141 0.597,2.22283 0.90454,3.36792 0.36431,1.28813 0.7309,2.57561 1.09937,3.86255 0.19853,0.69829 0.39707,1.39658 0.60162,2.11603 0.64978,2.28107 1.30305,4.56111 1.95697,6.841 0.2257,0.78892 0.45139,1.57783 0.68393,2.39066 3.05097,10.65597 6.20259,21.2732 9.49966,31.85592 7.91207,25.48359 15.39518,51.11349 22.49219,76.83545 0.82184,2.94598 1.6641,5.88555 2.51172,8.82422 0.28367,0.98364 0.56735,1.96727 0.85962,2.98071 0.5361,1.85398 1.07422,3.70737 1.61475,5.56006 0.35106,1.21539 0.35106,1.21539 0.70922,2.45532 0.20682,0.7102 0.41363,1.42039 0.62671,2.1521 C 238,585 238,585 238,587 c -14.4893,0.12546 -28.91565,-0.25367 -43.39063,-0.875 -2.16858,-0.09 -4.33718,-0.17972 -6.50579,-0.26904 -5.63548,-0.2331 -11.27073,-0.4711 -16.90595,-0.71021 -5.77929,-0.24432 -11.55878,-0.48388 -17.33826,-0.72388 C 142.57272,583.95251 131.28629,583.47795 120,583 c -13.90188,-26.44999 -13.90188,-26.44999 -19.8125,-39.5 -1.083084,-2.35949 -2.166417,-4.71886 -3.25,-7.07813 -0.756035,-1.65418 -0.756035,-1.65418 -1.527344,-3.34179 -4.222351,-9.22251 -8.533322,-18.39669 -13.097656,-27.45508 -3.460965,-6.86875 -6.842435,-13.77539 -10.191071,-20.69952 -0.848982,-1.7541 -1.701347,-3.50656 -2.553802,-5.25898 -2.772404,-5.74604 -5.374245,-11.49543 -7.686768,-17.4414 -1.292745,-3.26555 -2.761252,-6.42143 -4.255859,-9.6001 -0.442914,-0.94492 -0.442914,-0.94492 -0.894775,-1.90894 -2.448752,-5.19517 -5.02665,-10.32089 -7.663819,-15.42309 C 48,433 48,433 48,431 c -19.601567,2.60994 -39.0288614,6.09079 -58.476074,9.65015 -10.275075,1.87821 -20.55289,3.709 -30.859863,5.40454 -9.621496,1.58369 -19.211203,3.29559 -28.788331,5.12793 -3.15044,0.60249 -6.302287,1.19747 -9.454315,1.79159 -1.505162,0.28879 -3.008783,0.58576 -4.510559,0.89167 -2.931997,0.59615 -5.778999,1.12558 -8.767792,1.31918 -2.543021,0.2083 -3.985513,0.4415 -6.143066,1.81494 -2.93394,4.1492 -4.81347,8.70427 -6.75,13.375 -0.58956,1.35161 -1.18264,2.70169 -1.77905,4.05029 -1.23051,2.79038 -2.44465,5.58706 -3.6482,8.38916 -1.74069,4.02848 -3.56939,8.01097 -5.43603,11.98242 -0.29198,0.6215 -0.58397,1.243 -0.8848,1.88334 -0.85406,1.81528 -1.70923,3.63004 -2.56442,5.44479 -3.45474,7.36763 -6.7666,14.76341 -9.86304,22.28906 -1.19697,2.88079 -2.48429,5.7066 -3.82446,8.52344 -2.65991,5.70176 -5.15905,11.46191 -7.625,17.25 -2.98343,6.99592 -5.98825,13.98093 -9.0625,20.9375 -0.49476,1.12765 -0.49476,1.12765 -0.99951,2.27808 -1.35262,3.04781 -2.70857,5.81529 -4.56299,8.59692 -3.28792,0.94359 -6.56493,1.17851 -9.97046,1.37305 -0.96127,0.0568 -1.92255,0.11351 -2.91295,0.17199 -1.54078,0.086 -1.54078,0.086 -3.11268,0.17371 -1.06631,0.0628 -2.13261,0.1256 -3.23122,0.19031 -3.40321,0.2003 -6.80666,0.39612 -10.21019,0.59094 -4.47809,0.25672 -8.9559,0.51777 -13.43359,0.78125 -1.02517,0.0573 -2.05033,0.11465 -3.10656,0.17371 -4.7464,0.27933 -9.33799,0.69318 -14.02235,1.54504 -2.8028,0.0955 -5.57324,0.14187 -8.375,0.125 -0.81146,-0.003 -1.62293,-0.005 -2.45898,-0.008 -6.89359,-0.0512 -13.77821,-0.27618 -20.66602,-0.55444 -0.97759,-0.0392 -1.95519,-0.0783 -2.9624,-0.11865 -4.51959,-0.1999 -9.01213,-0.46919 -13.51416,-0.91651 -8.61055,-0.82403 -17.26023,-1.12284 -25.89844,-1.52734 -11.05622,-0.51981 -22.09546,-1.05209 -33.125,-2 0.96297,-27.09594 3.39089,-54.13807 5.68796,-81.14755 1.08362,-12.75839 2.02416,-25.52419 2.93216,-38.29615 0.9153,-12.81626 1.97558,-25.61448 3.12091,-38.41213 1.45375,-16.24657 2.76183,-32.49188 3.82147,-48.76917 0.0598,-0.91796 0.11954,-1.83593 0.18112,-2.78171 0.30059,-4.63459 0.59774,-9.2694 0.8931,-13.90433 0.56617,-8.88053 1.14401,-17.76026 1.7363,-26.63909 0.18288,-2.76265 0.36027,-5.52562 0.53738,-8.28864 0.60374,-9.18167 1.44873,-18.26964 2.65918,-27.39136 0.49297,-3.85956 0.79029,-7.67285 0.99292,-11.55737 0.33619,-6.33263 0.33619,-6.33263 0.94141,-9.19922 0.70712,-3.72494 0.74126,-7.45887 0.87109,-11.23828 0.44774,-10.79257 1.64921,-21.47146 2.90625,-32.19531 0.11988,-1.04318 0.23977,-2.08635 0.36328,-3.16114 0.23199,-1.96997 0.47872,-3.93828 0.74219,-5.90429 0.10957,-0.88075 0.21914,-1.76151 0.33203,-2.66895 0.10248,-0.76554 0.20496,-1.53108 0.31055,-2.31982 -0.0347,-2.51881 -0.76024,-3.97771 -2.0293,-6.12549 8.20332,-6.09034 16.47905,-12.05263 24.875,-17.875 9.25896,-6.4386 18.23786,-13.18493 27.125,-20.125 1.20181,-0.93361 2.40364,-1.8672 3.60547,-2.80078 4.7593,-3.70992 9.4926,-7.44669 14.15234,-11.28125 7.93371,-6.52639 16.00688,-12.77022 24.3086,-18.823 4.77829,-3.48887 9.48849,-7.03995 14.12109,-10.71997 9.07334,-7.20117 18.36044,-14.11249 27.69922,-20.96484 1.23532,-0.90722 1.23532,-0.90722 2.4956,-1.83277 1.65437,-1.21282 3.31093,-2.42265 4.96973,-3.62939 4.08704,-2.98855 7.94731,-6.054045 11.71045,-9.448 5.90086,-4.748743 12.93796,-6.482102 20.06934,-8.619141 5.61683,-1.725019 11.17382,-3.634358 16.74316,-5.505859 1.94971,-0.650524 3.89989,-1.299622 5.850128,-1.948578 5.517188,-1.835934 11.031912,-3.679003 16.543045,-5.533035 2.881731,-0.969016 5.764451,-1.935073 8.647141,-2.90123 1.472738,-0.494642 2.944969,-0.990796 4.416687,-1.488464 8.461489,-2.861056 16.94113,-5.614126 25.504974,-8.154847 4.046945,-1.201077 8.08681,-2.4252 12.127075,-3.648529 1.967195,-0.587368 3.938126,-1.162374 5.91272,-1.724365 2.768556,-0.788491 5.521765,-1.618102 8.275574,-2.456421 0.822326,-0.221673 1.644652,-0.443347 2.491897,-0.671737 4.6819231,-1.475665 6.8596454,-2.988497 9.3235324,-7.304581 C -2.9935659,40.366946 -1.6604886,36.158926 -0.6875,31.625 -0.52290283,30.891846 -0.35830566,30.158691 -0.1887207,29.40332 1.2016461,22.824899 1.9411624,16.274151 0.48046875,9.640625 -0.1094754,6.3983303 -0.02962106,3.289623 0,0 Z"
         fill="#c51717"
         transform="translate(459,228)"
         id="path2" />
      <path
         d="m 0,0 c 25.001725,-0.01373754 50.003438,-0.01284235 75.005164,-0.00136471 1.992041,9.0775e-4 3.984081,0.00177704 5.976122,0.00260735 25.626204,0.01076807 51.252184,0.04519219 76.878254,0.13085079 10.66558,0.0351009 21.33102,0.0600907 31.99666,0.0634632 9.54079,0.003039 19.08136,0.0234179 28.62206,0.0649679 4.98417,0.0211433 9.96802,0.0340196 14.95223,0.0256292 4.62311,-0.007528 9.24556,0.008231 13.86855,0.0419064 1.68462,0.008212 3.36929,0.008008 5.0539,-0.001463 C 261.3043,0.28123753 268.55391,0.41046392 276,6 c 1.14072,0.7152483 2.2858,1.4236526 3.4375,2.1210938 1.18987,0.7684761 2.37722,1.5408747 3.5625,2.3164062 1.03097,0.670232 1.03097,0.670232 2.08276,1.354004 8.85281,5.780935 17.63151,11.675219 26.42298,17.548798 11.3946,7.616196 11.3946,7.616196 22.86584,15.116241 1.57461,1.02183 3.14217,2.054605 4.70215,3.098633 4.0161,2.671403 8.02227,5.032337 12.34424,7.179199 17.18949,9.052525 21.42461,22.44202 27.1167,39.883789 1.35106,4.105527 2.85388,8.134626 4.43799,12.155276 0.25095,0.63748 0.50189,1.27497 0.76045,1.93178 0.51511,1.30708 1.0305,2.61405 1.54616,3.92091 14.26852,36.41433 27.26245,73.38 39.70512,110.45259 1.62449,4.82257 3.33713,9.60459 5.15623,14.3578 2.23137,6.65605 3.16047,12.42063 3.04297,19.39551 -0.007,0.85794 -0.0147,1.71587 -0.0223,2.59981 -0.1257,10.53312 -0.55739,21.05906 -0.96272,31.58427 -0.26306,7.10059 -0.47728,14.20286 -0.69946,21.30482 -0.27143,8.61735 -0.60345,17.22914 -1.007,25.84133 -0.27572,5.94748 -0.5024,11.89571 -0.69673,17.84639 -0.11923,3.58561 -0.26201,7.16672 -0.46278,10.74877 -1.69227,15.50125 -1.69227,15.50125 3.40549,29.35611 3.10356,2.95633 6.4986,4.86722 10.26196,6.88647 1.84283,1.4412 3.66137,2.91485 5.4375,4.4375 0.88172,0.71801 1.76344,1.43602 2.67187,2.17578 5.70349,4.70923 11.29534,9.54987 16.89063,14.38672 0.75281,0.64969 1.50562,1.29937 2.28125,1.96875 2.87572,2.49858 5.70445,5.01768 8.46875,7.64062 0.48573,0.45682 0.97147,0.91363 1.47192,1.38428 1.39525,1.31506 2.78031,2.6409 4.1648,3.96729 2.81319,2.19504 4.05666,3.07105 7.61328,3.03906 2.50376,-1.14354 4.67395,-2.31509 7,-3.75 1.41382,-0.82946 2.82927,-1.65614 4.24609,-2.48047 0.7591,-0.44521 1.5182,-0.89042 2.3003,-1.34912 4.45894,-2.58131 8.97772,-5.04468 13.51611,-7.48291 1.31968,-0.73332 1.31968,-0.73332 2.66602,-1.48145 6.01218,-3.21277 10.20781,-4.317 17.0371,-2.87011 1.22977,0.39058 1.22977,0.39058 2.48438,0.78906 1.24523,0.38285 1.24523,0.38285 2.51562,0.77344 C 546,425 546,425 549,427 c 1.01812,3.05435 1.13258,5.144 1.14526,8.3418 0.01,1.63684 0.01,1.63684 0.0193,3.30676 0.002,1.76724 0.002,1.76724 0.003,3.57019 0.003,1.20942 0.007,2.41885 0.0101,3.66492 0.005,2.55879 0.007,5.11759 0.007,7.67639 0.002,3.9241 0.0204,7.84792 0.0393,11.77197 0.003,2.48307 0.005,4.96615 0.006,7.44922 0.007,1.17816 0.0144,2.35633 0.0218,3.57019 -0.003,1.09123 -0.006,2.18246 -0.009,3.30676 0.002,1.44204 0.002,1.44204 0.004,2.91321 C 550,485 550,485 548,488 c -5.00983,1.33859 -10.17712,1.14454 -15.32813,1.13281 -0.92193,0.002 -1.84386,0.003 -2.79373,0.005 -3.04276,0.002 -6.08539,-0.004 -9.12814,-0.0125 -1.04424,-0.003 -2.08848,-0.005 -3.16437,-0.008 -6.70194,-0.019 -13.40369,-0.0552 -20.10553,-0.0977 -3.49109,-0.0197 -6.98213,-0.0314 -10.47326,-0.0416 -5.6999,-0.0192 -11.39898,-0.0662 -17.09851,-0.13263 -2.17385,-0.0218 -4.34779,-0.0354 -6.52173,-0.0404 -3.05411,-0.009 -6.10633,-0.0499 -9.16004,-0.098 -1.33468,0.006 -1.33468,0.006 -2.69632,0.0119 -7.98051,-0.18497 -14.38643,-2.98517 -20.40524,-8.21892 -0.70125,-0.825 -1.4025,-1.65 -2.125,-2.5 -0.65742,-0.71543 -1.31484,-1.43086 -1.99219,-2.16797 -2.39148,-3.3732 -3.33269,-6.68242 -4.25781,-10.64453 -0.17273,-0.69287 -0.34547,-1.38574 -0.52344,-2.09961 C 421.8062,461.39474 421.40147,459.69773 421,458 c -0.33,0 -0.66,0 -1,0 -0.24234,1.1202 -0.48469,2.24039 -0.73438,3.39453 -0.33772,1.47285 -0.6763,2.94549 -1.01562,4.41797 -0.15727,0.73799 -0.31453,1.47598 -0.47656,2.23633 -0.74809,3.17938 -1.42113,5.55143 -3.60157,8.02539 C 412,477 412,477 409.51953,477.125 c -3.74671,-1.67295 -5.02422,-4.62954 -6.83203,-8.125 -0.38535,-0.71479 -0.7707,-1.42957 -1.16772,-2.16602 -2.999,-5.63793 -5.78233,-11.38228 -8.4292,-17.19336 -2.43841,-5.3513 -5.0586,-10.60596 -7.6971,-15.8605 -4.77671,-9.52104 -9.46117,-19.08738 -14.14348,-28.65512 -0.48522,-0.99123 -0.97044,-1.98246 -1.47037,-3.00372 -6.5643,-13.42058 -12.99869,-26.88163 -19.19369,-40.47675 -3.94052,-8.64317 -8.07733,-17.19283 -12.19629,-25.75195 -1.46548,-3.05043 -2.92448,-6.10389 -4.38184,-9.15821 -0.49298,-1.03294 -0.98597,-2.06588 -1.49389,-3.13012 -0.93739,-1.9645 -1.87443,-3.92917 -2.81104,-5.89404 -1.96173,-4.10685 -3.94348,-8.19486 -6.01929,-12.24537 C 322,302 322,302 322,300 c -1.15887,-0.0825 -2.31773,-0.165 -3.51172,-0.25 -4.72207,-0.59091 -8.22742,-2.38456 -12.30078,-4.75 -4.93665,-2.83311 -4.93665,-2.83311 -10.1875,-5 2.04051,12.38777 4.29658,24.71236 6.875,37 3.20797,15.3024 6.21307,30.63878 9.125,46 0.16709,0.88037 0.33419,1.76074 0.50635,2.66779 1.11187,5.86124 2.21796,11.72354 3.31793,17.58703 0.36554,1.94654 0.73218,3.89287 1.09998,5.83899 0.51582,2.73239 1.02688,5.46564 1.53668,8.19916 0.15593,0.8215 0.31187,1.643 0.47253,2.48939 C 319.57903,413.269 320,416.44096 320,420 c -3.665,-1.4679 -5.23081,-3.32348 -7.43359,-6.55859 -0.64244,-0.93393 -1.28488,-1.86786 -1.94678,-2.83008 -0.67885,-1.00612 -1.35771,-2.01223 -2.05713,-3.04883 -0.70721,-1.03318 -1.41442,-2.06637 -2.14307,-3.13086 -1.45103,-2.12162 -2.89829,-4.24582 -4.34179,-6.37256 -1.87952,-2.76737 -3.77005,-5.52663 -5.66748,-8.28174 -4.94842,-7.18959 -9.85975,-14.40461 -14.72266,-21.65234 -0.71801,-1.06992 -1.43602,-2.13984 -2.17578,-3.24219 -2.14642,-3.26567 -4.17668,-6.59709 -6.21094,-9.93359 -2.89052,-4.73282 -5.87685,-9.38844 -8.95703,-14 -0.39416,-0.59066 -0.78832,-1.18132 -1.19443,-1.78987 -0.39756,-0.59569 -0.79513,-1.19137 -1.20474,-1.8051 C 254.54073,326.26029 247.35042,315.2654 242,303 c -1.70858,0.14289 -3.41686,0.28946 -5.125,0.4375 -0.95133,0.0812 -1.90266,0.16242 -2.88281,0.24609 -3.02536,0.31992 -5.99412,0.80459 -8.99219,1.31641 1.06093,-6.85441 2.12355,-13.70856 3.1875,-20.5625 0.15834,-1.02014 0.31669,-2.04028 0.47983,-3.09134 2.19509,-14.13278 4.41972,-28.25992 6.73379,-42.37375 0.862,-5.28139 1.69457,-10.56332 2.4397,-15.86255 1.53753,-10.81801 3.14851,-21.62524 4.74902,-32.43408 0.34869,-2.35586 0.69737,-4.71172 1.04604,-7.06758 0.72845,-4.92112 1.45721,-9.84219 2.18614,-14.76323 0.92647,-6.25503 1.85178,-12.51024 2.77679,-18.76549 0.71921,-4.86219 1.43926,-9.72426 2.15952,-14.58629 0.34113,-2.30365 0.68196,-4.60734 1.02248,-6.91107 1.571,-10.62669 3.15326,-21.24971 4.85371,-31.856534 1.13358,-7.092047 2.11811,-14.186941 2.93579,-21.323242 0.12656,-1.08462 0.25312,-2.169241 0.38352,-3.286728 0.26233,-2.258768 0.52268,-4.517767 0.78103,-6.776993 0.39011,-3.40082 0.79016,-6.800372 1.19092,-10.199951 C 263.78839,39.116262 265.32018,23.151302 265,7 258.80151,16.797612 252.74281,26.703043 247.18359,36.878906 244.89448,40.981183 242.43426,44.982808 240,49 c -1.89857,3.147478 -3.77159,6.30921 -5.63672,9.476562 -9.65594,16.333135 -9.65594,16.333135 -15.41406,23.914063 -1.51366,2.026296 -2.95316,4.061639 -4.36719,6.15625 -0.40903,0.604651 -0.81807,1.209302 -1.2395,1.832275 -0.79665,1.183237 -1.58837,2.369814 -2.37451,3.560059 C 210.02841,95.327792 209.01979,96.669194 208,98 c -0.66,0 -1.32,0 -2,0 -1.32178,-1.718018 -1.32178,-1.718018 -2.83594,-4.144531 -0.56348,-0.894851 -1.12696,-1.789702 -1.70752,-2.71167 -0.60441,-0.975579 -1.20882,-1.951157 -1.83154,-2.956299 -0.62632,-0.998137 -1.25265,-1.996274 -1.89795,-3.024658 -1.29268,-2.060664 -2.58253,-4.123103 -3.86963,-6.187256 -2.15934,-3.459261 -4.33737,-6.906362 -6.51904,-10.351563 -1.47753,-2.33388 -2.95132,-4.67009 -4.42432,-7.006836 -1.91688,-3.03965 -3.83887,-6.075967 -5.76562,-9.109375 C 170.4802,41.998848 163.92764,31.421854 157.43066,20.806396 153.59145,14.513591 153.59145,14.513591 149.53125,8.3632813 148,6 148,6 148,4 c -0.66,0 -1.32,0 -2,0 0.22551,0.8032873 0.22551,0.8032873 0.45557,1.6228027 2.92389,10.4590663 5.73415,20.9326533 8.23193,31.5021973 6.79954,28.728236 14.09775,57.332234 21.71332,85.85402 4.37245,16.40372 8.60338,32.84992 12.68365,49.3286 0.8502,3.42888 1.70815,6.85572 2.56787,10.28222 2.75398,11.00277 5.46814,22.01541 8.18037,33.02853 0.81567,3.31204 1.63202,6.62392 2.45025,9.93534 3.92706,15.89475 7.77697,31.80302 11.44343,47.76016 0.26972,1.16921 0.53943,2.33842 0.81731,3.54306 0.24914,1.08046 0.49828,2.16092 0.75498,3.27411 0.57633,2.35766 1.22719,4.64953 1.96035,6.96125 0.7256,2.84741 0.81898,4.21268 -0.25903,6.90771 -0.58846,-0.41975 -1.17691,-0.8395 -1.7832,-1.27197 -6.45373,-4.5653 -13.04011,-8.87252 -19.7168,-13.10303 -2.21555,-1.41036 -4.43061,-2.82145 -6.64453,-4.23438 -0.56464,-0.3603 -1.12927,-0.7206 -1.71102,-1.09182 -6.14234,-3.92614 -12.23763,-7.92362 -18.33195,-11.9238 -9.03606,-5.92921 -18.12043,-11.77377 -27.25195,-17.55469 -5.12701,-3.25201 -10.21213,-6.55409 -15.24805,-9.94531 -6.9895,-4.70473 -14.10366,-9.199 -21.23828,-13.67969 -3.46568,-2.17742 -6.920354,-4.37099 -10.367189,-6.57812 -10.475033,-6.70587 -21.017944,-13.27617 -31.658691,-19.71607 -6.191719,-3.75286 -12.304086,-7.59633 -18.372559,-11.54565 -5.704297,-3.68603 -11.512766,-7.21015 -17.307129,-10.7522 -1.692472,-1.04008 -3.377198,-2.0929 -5.052978,-3.15967 -2.253798,-1.44563 -2.253798,-1.44563 -4.453613,-2.56103 -2.916287,-1.66459 -4.530243,-2.8237 -5.555665,-6.09595 -0.397343,-2.92182 -0.537828,-5.77633 -0.618896,-8.72412 -0.05793,-1.1239 -0.115854,-2.2478 -0.175537,-3.40576 -0.126499,-2.50813 -0.23838,-5.01703 -0.338135,-7.52637 -0.175879,-4.39446 -0.430173,-8.78312 -0.689453,-13.17334 C 9.7632847,115.52742 9.0484228,103.09773 8.7929688,90.648437 8.2620384,65.170027 5.4078263,40.259458 1.2194824,15.129395 1.059397,14.154702 0.89931152,13.18001 0.734375,12.175781 0.59225586,11.339583 0.45013672,10.503384 0.30371094,9.6418457 -0.0671623,6.4157852 -0.01847005,3.2449536 0,0 Z"
         fill="#fe5f39"
         transform="translate(459,228)"
         id="path3" />
      <path
         d="m 0,0 c 55.042657,-0.08007849 110.08137,0.11837995 165.123,0.44538212 10.49962,0.0622845 20.99925,0.12189315 31.49889,0.1813755 C 218.08127,0.74838394 239.54064,0.87305834 261,1 c 0,0.66 0,1.32 0,2 1.65,0 3.3,0 5,0 -1.334,4.6689895 -3.28884,7.998275 -6,12 -1.51032,2.41895 -2.97548,4.864118 -4.4375,7.3125 -0.39615,0.661531 -0.79229,1.323062 -1.20044,2.004639 -2.47271,4.145532 -4.86413,8.325495 -7.17847,12.561767 C 244.89448,40.981183 242.43426,44.982808 240,49 c -1.89857,3.147478 -3.77159,6.30921 -5.63672,9.476562 -9.65594,16.333135 -9.65594,16.333135 -15.41406,23.914063 -1.51366,2.026296 -2.95316,4.061639 -4.36719,6.15625 -0.40903,0.604651 -0.81807,1.209302 -1.2395,1.832275 -0.79665,1.183237 -1.58837,2.369814 -2.37451,3.560059 C 210.02841,95.327792 209.01979,96.669194 208,98 c -0.66,0 -1.32,0 -2,0 -1.32178,-1.718018 -1.32178,-1.718018 -2.83594,-4.144531 -0.56348,-0.894851 -1.12696,-1.789702 -1.70752,-2.71167 -0.60441,-0.975579 -1.20882,-1.951157 -1.83154,-2.956299 -0.62632,-0.998137 -1.25265,-1.996274 -1.89795,-3.024658 -1.29268,-2.060664 -2.58253,-4.123103 -3.86963,-6.187256 -2.15934,-3.459261 -4.33737,-6.906362 -6.51904,-10.351563 -1.47753,-2.33388 -2.95132,-4.67009 -4.42432,-7.006836 -1.91688,-3.03965 -3.83887,-6.075967 -5.76562,-9.109375 C 170.4802,41.998848 163.92764,31.421854 157.43066,20.806396 153.59145,14.513591 153.59145,14.513591 149.53125,8.3632813 148,6 148,6 148,4 c -0.66,0 -1.32,0 -2,0 0.22551,0.8032873 0.22551,0.8032873 0.45557,1.6228027 2.92389,10.4590663 5.73415,20.9326533 8.23193,31.5021973 6.79954,28.728236 14.09775,57.332234 21.71332,85.85402 4.37245,16.40372 8.60338,32.84992 12.68365,49.3286 0.8502,3.42888 1.70815,6.85572 2.56787,10.28222 2.75398,11.00277 5.46814,22.01541 8.18037,33.02853 0.81567,3.31204 1.63202,6.62392 2.45025,9.93534 3.92706,15.89475 7.77697,31.80302 11.44343,47.76016 0.26972,1.16921 0.53943,2.33842 0.81731,3.54306 0.24914,1.08046 0.49828,2.16092 0.75498,3.27411 0.57633,2.35766 1.22719,4.64953 1.96035,6.96125 0.7256,2.84741 0.81898,4.21268 -0.25903,6.90771 -0.58846,-0.41975 -1.17691,-0.8395 -1.7832,-1.27197 -6.45373,-4.5653 -13.04011,-8.87252 -19.7168,-13.10303 -2.21555,-1.41036 -4.43061,-2.82145 -6.64453,-4.23438 -0.56464,-0.3603 -1.12927,-0.7206 -1.71102,-1.09182 -6.14234,-3.92614 -12.23763,-7.92362 -18.33195,-11.9238 -9.03606,-5.92921 -18.12043,-11.77377 -27.25195,-17.55469 -5.12701,-3.25201 -10.21213,-6.55409 -15.24805,-9.94531 -6.9895,-4.70473 -14.10366,-9.199 -21.23828,-13.67969 -3.46568,-2.17742 -6.920354,-4.37099 -10.367189,-6.57812 -10.475033,-6.70587 -21.017944,-13.27617 -31.658691,-19.71607 -6.191719,-3.75286 -12.304086,-7.59633 -18.372559,-11.54565 -5.704297,-3.68603 -11.512766,-7.21015 -17.307129,-10.7522 -1.692472,-1.04008 -3.377198,-2.0929 -5.052978,-3.15967 -2.253798,-1.44563 -2.253798,-1.44563 -4.453613,-2.56103 -2.916287,-1.66459 -4.530243,-2.8237 -5.555665,-6.09595 -0.397343,-2.92182 -0.537828,-5.77633 -0.618896,-8.72412 -0.05793,-1.1239 -0.115854,-2.2478 -0.175537,-3.40576 -0.126499,-2.50813 -0.23838,-5.01703 -0.338135,-7.52637 -0.175879,-4.39446 -0.430173,-8.78312 -0.689453,-13.17334 C 9.7632847,115.52742 9.0484228,103.09773 8.7929688,90.648437 8.2620384,65.170027 5.4078263,40.259458 1.2194824,15.129395 1.059397,14.154702 0.89931152,13.18001 0.734375,12.175781 0.59225586,11.339583 0.45013672,10.503384 0.30371094,9.6418457 -0.0671623,6.4157852 -0.01847005,3.2449536 0,0 Z"
         fill="#f73129"
         transform="translate(459,228)"
         id="path5" />
      <path
         d="m 0,0 c 0.33,0 0.66,0 1,0 -0.58457715,6.5841543 -2.7546666,12.351522 -5.0507812,18.519531 -0.4101485,1.119093 -0.820297,2.238185 -1.2428742,3.39119 -0.8783572,2.394632 -1.7597522,4.788151 -2.6439056,7.180649 -1.3849995,3.748358 -2.762291,7.499448 -4.136169,11.251892 -0.22772,0.621926 -0.45544,1.243852 -0.69006,1.884624 -0.227279,0.620771 -0.454558,1.241541 -0.688725,1.881123 -0.913131,2.493985 -1.826947,4.98772 -2.741455,7.481201 -3.539512,9.656541 -7.021053,19.331795 -10.43103,29.03479 -0.234549,0.666647 -0.469098,1.333293 -0.710754,2.020142 -3.325017,9.458326 -6.592682,18.936158 -9.851746,28.417358 -6.636433,19.29426 -13.582823,38.44616 -20.899689,57.49167 -5.804663,15.10936 -11.457958,30.27192 -17.067596,45.45462 -1.695026,4.58684 -3.394259,9.17211 -5.094025,13.7572 -1.522542,4.10764 -3.0438,8.21576 -4.564789,12.32398 -0.737022,1.99028 -1.474396,3.98044 -2.212158,5.97045 -0.702462,1.89526 -1.404247,3.79076 -2.105316,5.68653 -0.673499,1.82071 -1.348693,3.64079 -2.025696,5.4602 -1.584467,4.27942 -3.116324,8.56513 -4.539032,12.90125 -0.264706,0.7947 -0.529412,1.58939 -0.802139,2.40817 -0.490211,1.48375 -0.967024,2.97201 -1.427826,4.46515 -1.580602,4.75931 -1.580602,4.75931 -4.052014,6.05588 -3.34458,-0.0622 -5.86852,-1.84422 -8.64722,-3.5376 -0.62536,-0.36948 -1.25071,-0.73896 -1.89502,-1.11963 -4.39415,-2.62972 -8.58942,-5.48104 -12.7417,-8.47803 -3.40176,-2.36328 -6.90259,-4.53838 -10.42578,-6.71484 -5.30068,-3.27625 -10.52601,-6.63369 -15.6875,-10.125 -5.54993,-3.74987 -11.20488,-7.28637 -16.9375,-10.75 -5.55581,-3.35796 -10.96775,-6.80331 -16.24219,-10.59375 -4.0593,-2.85318 -8.26051,-5.4863 -12.4414,-8.15625 -7.11545,-4.54474 -14.18106,-9.16703 -21.25635,-13.77393 -2.83573,-1.84596 -5.6725,-3.69031 -8.50928,-5.53466 -8.83758,-5.75018 -17.66211,-11.51659 -26.42578,-17.37891 -1.43477,-0.95592 -2.86967,-1.91164 -4.30469,-2.86719 -2.38533,-1.58845 -4.76646,-3.18245 -7.1416,-4.78613 -2.71932,-1.83446 -5.44818,-3.65397 -8.17871,-5.47168 -1.26397,-0.86069 -1.26397,-0.86069 -2.55347,-1.73877 -0.79317,-0.52449 -1.58635,-1.04897 -2.40356,-1.58936 -0.69714,-0.46825 -1.39428,-0.9365 -2.11255,-1.41894 -2.52076,-1.19369 -4.36154,-1.18956 -7.11792,-1.00293 -0.66,-1.32 -1.32,-2.64 -2,-4 8.20332,-6.09034 16.47905,-12.05263 24.875,-17.875 9.25896,-6.4386 18.23786,-13.18493 27.125,-20.125 1.20181,-0.93361 2.40364,-1.8672 3.60547,-2.80078 4.7593,-3.70992 9.4926,-7.44669 14.15234,-11.28125 7.93371,-6.52639 16.00688,-12.77022 24.3086,-18.822999 4.77829,-3.488876 9.48849,-7.039946 14.12109,-10.719971 9.07334,-7.20117 18.36044,-14.112493 27.69922,-20.964844 1.23532,-0.907218 1.23532,-0.907218 2.4956,-1.832763 1.65437,-1.212822 3.31093,-2.422652 4.96973,-3.629395 4.08704,-2.988551 7.94731,-6.054043 11.71045,-9.447998 5.90086,-4.748743 12.93796,-6.482102 20.06934,-8.619141 5.61683,-1.725019 11.17382,-3.634358 16.74316,-5.505859 1.949712,-0.650524 3.899894,-1.299622 5.850128,-1.948578 5.517158,-1.835924 11.031801,-3.67913 16.542984,-5.532913 3.618183,-1.21683 7.237316,-2.430817 10.856888,-3.643509 0.726981,-0.243623 1.453962,-0.487245 2.202972,-0.738251 15.532572,-5.19671 31.142258,-10.147881 46.768219,-15.0556943 0.920023,-0.290165 1.840046,-0.5803299 2.787949,-0.8792877 1.736932,-0.5477571 3.4746634,-1.0929842 5.2132874,-1.6353455 C -3.15811,2.007864 -3.15811,2.007864 0,0 Z"
         fill="#f62f28"
         transform="translate(452,276)"
         id="path7" />
      <path
         d="m 0,0 c 3.673156,0.66863596 6.3823532,2.269249 9.5625,4.1875 3.799634,2.2605995 7.603156,4.474035 11.5,6.5625 6.552004,3.5459 12.978282,7.302407 19.417969,11.046875 4.016639,2.334861 8.041401,4.65513 12.070312,6.96875 1.695641,0.974652 1.695641,0.974652 3.425537,1.968994 2.199199,1.263659 4.399181,2.525957 6.600098,3.786621 6.467047,3.719849 12.843429,7.562204 19.186279,11.489746 5.265653,3.23524 10.598068,6.355779 15.924805,9.489014 12.4257,7.330924 24.72475,14.856317 36.99072,22.45166 3.49933,2.157823 7.00887,4.298184 10.521,6.435059 1.77707,1.083857 3.55386,2.168172 5.33053,3.252685 1.67181,1.018585 3.3465,2.032436 5.02128,3.046143 C 163.34281,95.448665 168.88532,99.322902 174,107 c 2.54819,2.22588 2.54819,2.22588 5.4375,4.1875 4.55944,3.29879 8.91786,6.70979 13.1875,10.375 3.70109,3.17275 7.41713,6.29824 11.25,9.3125 8.76974,6.9558 17.1617,14.40457 25.4375,21.9375 3.85257,3.49199 7.84302,6.74344 11.92578,9.96094 3.29272,2.65466 6.49732,5.4011 9.69922,8.16406 4.14512,3.57608 8.31102,7.11248 12.5625,10.5625 4.84311,3.93147 9.57624,7.97879 14.2998,12.052 3.60585,3.1024 7.25224,6.14266 10.9502,9.1355 3.50884,2.84709 6.90867,5.77063 10.25,8.8125 4.24301,3.86215 8.62343,7.50754 13.08203,11.11719 3.73352,3.04879 7.4032,6.1691 11.07471,9.29199 3.47532,2.94994 6.98756,5.84728 10.53076,8.71582 4.41369,3.59373 8.66967,7.32549 12.875,11.16016 3.23454,2.93908 6.52638,5.81137 9.82031,8.68359 0.53367,0.50531 1.06735,1.01062 1.61719,1.53125 0,0.33 0,0.66 0,1 -13.02259,0.14884 -25.99107,-0.32231 -39,-0.875 -2.1743,-0.09 -4.34862,-0.17964 -6.52295,-0.26904 -5.66838,-0.23384 -11.33658,-0.47159 -17.00476,-0.71021 -5.80577,-0.2437 -11.61169,-0.48362 -17.4176,-0.72388 C 266.70297,259.95158 255.35143,259.47713 244,259 c -13.90188,-26.44999 -13.90188,-26.44999 -19.8125,-39.5 -1.08308,-2.35949 -2.16642,-4.71886 -3.25,-7.07813 -0.50402,-1.10279 -1.00805,-2.20558 -1.52734,-3.34179 -4.22235,-9.22251 -8.53333,-18.39669 -13.09766,-27.45508 -3.46096,-6.86875 -6.84243,-13.77539 -10.19107,-20.69952 -0.84898,-1.7541 -1.70135,-3.50656 -2.5538,-5.25898 -2.77241,-5.74604 -5.37425,-11.49543 -7.68677,-17.4414 -1.29275,-3.26555 -2.76125,-6.42143 -4.25586,-9.6001 -0.29528,-0.62995 -0.59055,-1.2599 -0.89478,-1.90894 -2.44875,-5.19517 -5.02665,-10.32089 -7.66381,-15.42309 C 172,109 172,109 172,107 c -19.60157,2.60994 -39.02886,6.09079 -58.47607,9.65015 -10.27508,1.87821 -20.552894,3.709 -30.859868,5.40454 -9.621495,1.58369 -19.211202,3.29559 -28.78833,5.12793 -3.15044,0.60249 -6.302287,1.19747 -9.454315,1.79159 -1.505162,0.28879 -3.008783,0.58576 -4.510559,0.89167 -2.931997,0.59615 -5.778999,1.12558 -8.767792,1.31918 C 28.600045,131.39336 27.157553,131.62656 25,133 c -2.933944,4.1492 -4.813466,8.70427 -6.75,13.375 -0.589564,1.35161 -1.182635,2.70169 -1.779053,4.05029 -1.230508,2.79038 -2.44465,5.58706 -3.648193,8.38916 -1.740691,4.02848 -3.5693939,8.01097 -5.4360353,11.98242 -0.2919827,0.6215 -0.5839654,1.243 -0.8847961,1.88334 -0.8540651,1.81528 -1.7092321,3.63004 -2.5644226,5.44479 -3.45473949,7.36763 -6.7665959,14.76341 -9.8630371,22.28906 -1.1969728,2.88079 -2.4842917,5.7066 -3.8244629,8.52344 -2.659911,5.70176 -5.159051,11.46191 -7.625,17.25 -2.983433,6.99592 -5.988254,13.98093 -9.0625,20.9375 -0.329839,0.75177 -0.659678,1.50353 -0.999512,2.27808 -1.352618,3.04781 -2.70857,5.81529 -4.562988,8.59692 -3.252218,0.93055 -6.491623,1.17571 -9.859375,1.37305 -0.938679,0.0568 -1.877358,0.11351 -2.844482,0.17199 -1.005227,0.0573 -2.010455,0.11465 -3.046143,0.17371 -1.0497,0.0628 -2.099399,0.1256 -3.180908,0.19031 -3.356179,0.20025 -6.71261,0.39582 -10.069092,0.59094 -4.395929,0.25881 -8.791741,0.51956 -13.1875,0.78125 -1.046316,0.062 -2.092632,0.12407 -3.170654,0.18799 C -84.579088,261.90191 -91.791499,262.39093 -99,263 c 0.676323,-4.38431 2.224861,-8.25611 3.957031,-12.30859 0.448209,-1.06541 0.448209,-1.06541 0.905472,-2.15235 0.643618,-1.5292 1.289229,-3.05757 1.93663,-4.58517 1.726497,-4.07426 3.438888,-8.15443 5.150086,-12.23514 0.346113,-0.82487 0.692226,-1.64975 1.048828,-2.49962 3.143395,-7.51326 6.142961,-15.07904 9.126953,-22.65663 7.147837,-18.02906 14.609766,-36.07172 24,-53.0625 6.055947,-11.04614 10.194417,-22.86599 14.483887,-34.67969 1.361935,-3.74959 2.751669,-7.48852 4.145019,-11.22656 5.010829,-13.486925 9.799534,-27.031374 14.42453,-40.654633 4.588974,-13.497505 9.600609,-26.81409 14.7593081,-40.103668 C -2.9347489,21.156556 -1.7224488,16.405555 -1.4375,10.3125 -1.0972222,3.2916667 -1.0972222,3.2916667 0,0 Z"
         fill="#970f10"
         transform="translate(335,552)"
         id="path8" />
      <path
         d="m 0,0 c 0.15706299,13.281712 -0.29569759,26.518951 -0.80148315,39.789795 -0.26195325,7.14544 -0.47736455,14.29248 -0.69946095,21.439255 -0.2706165,8.652603 -0.6018971,17.299565 -1.0069972,25.946937 -0.2755961,5.944512 -0.502336,11.889768 -0.6967334,17.837483 -0.1192632,3.58373 -0.2620885,7.16295 -0.4627753,10.74312 -1.6923332,15.50168 -1.6923332,15.50168 3.40548711,29.35694 C 2.8415988,148.06986 6.2366399,149.98075 10,152 c 1.84283,1.4412 3.661371,2.91485 5.4375,4.4375 0.881719,0.71801 1.763437,1.43602 2.671875,2.17578 C 23.812856,163.32251 29.404714,168.16315 35,173 c 0.752812,0.64969 1.505625,1.29937 2.28125,1.96875 2.87572,2.49858 5.704451,5.01768 8.46875,7.64062 0.485735,0.45682 0.97147,0.91363 1.471924,1.38428 1.395247,1.31506 2.780307,2.6409 4.164795,3.96729 2.813189,2.19504 4.056663,3.07105 7.613281,3.03906 2.503757,-1.14354 4.673945,-2.31509 7,-3.75 1.41382,-0.82946 2.829275,-1.65614 4.246094,-2.48047 0.759096,-0.44521 1.518193,-0.89042 2.300293,-1.34912 4.458941,-2.58131 8.977726,-5.04468 13.516113,-7.48291 0.879785,-0.48888 1.75957,-0.97775 2.666016,-1.48145 6.012188,-3.21277 10.207812,-4.317 17.037114,-2.87011 0.81984,0.26039 1.63968,0.52078 2.48437,0.78906 0.83016,0.25523 1.66031,0.51047 2.51563,0.77344 C 113,174 113,174 116,176 c 1.01812,3.05435 1.13258,5.144 1.14526,8.3418 0.006,1.09123 0.0128,2.18246 0.0193,3.30676 0.002,1.76724 0.002,1.76724 0.003,3.57019 0.003,1.20942 0.007,2.41885 0.0101,3.66492 0.005,2.55879 0.007,5.11759 0.007,7.67639 0.002,3.9241 0.0204,7.84792 0.0393,11.77197 0.003,2.48307 0.005,4.96615 0.006,7.44922 0.007,1.17816 0.0144,2.35633 0.0218,3.57019 -0.003,1.09123 -0.006,2.18246 -0.009,3.30676 10e-4,0.96136 0.003,1.92272 0.004,2.91321 C 117,234 117,234 115,237 c -5.00983,1.33859 -10.17712,1.14454 -15.328125,1.13281 -1.382897,0.002 -1.382897,0.002 -2.793732,0.005 -3.04276,0.002 -6.085395,-0.004 -9.128143,-0.0125 -1.044241,-0.003 -2.088483,-0.005 -3.164368,-0.008 -6.701946,-0.019 -13.403695,-0.0552 -20.105529,-0.0977 -3.491091,-0.0196 -6.982137,-0.0314 -10.473267,-0.0416 -5.699893,-0.0192 -11.398979,-0.0662 -17.098511,-0.13263 -2.173842,-0.0218 -4.347783,-0.0354 -6.521728,-0.0404 -3.054104,-0.009 -6.106327,-0.0499 -9.160035,-0.098 -1.334678,0.006 -1.334678,0.006 -2.696319,0.0119 C 10.549727,237.53395 4.1438076,234.73375 -1.875,229.5 -2.57625,228.675 -3.2775,227.85 -4,227 c -0.6574219,-0.71543 -1.3148437,-1.43086 -1.9921875,-2.16797 -2.3914851,-3.3732 -3.3326891,-6.68242 -4.2578125,-10.64453 -0.172734,-0.69287 -0.345469,-1.38574 -0.523438,-2.09961 C -11.193805,210.39474 -11.598525,208.69773 -12,207 c -0.33,0 -0.66,0 -1,0 -0.242344,1.1202 -0.484688,2.24039 -0.734375,3.39453 -0.337722,1.47285 -0.676309,2.94549 -1.015625,4.41797 -0.157266,0.73799 -0.314531,1.47598 -0.476563,2.23633 -0.748089,3.17938 -1.421125,5.55143 -3.601562,8.02539 C -21,226 -21,226 -23.480469,226.125 c -3.746715,-1.67295 -5.024216,-4.62954 -6.832031,-8.125 -0.385349,-0.71479 -0.770698,-1.42957 -1.167725,-2.16602 -2.998993,-5.63793 -5.782323,-11.38228 -8.429199,-17.19336 -2.438405,-5.3513 -5.058596,-10.60596 -7.697098,-15.8605 -4.776708,-9.52104 -9.461163,-19.08738 -14.143478,-28.65512 -0.727832,-1.48684 -0.727832,-1.48684 -1.470367,-3.00372 -6.564302,-13.42058 -12.998695,-26.88163 -19.193695,-40.47675 -3.940513,-8.64317 -8.077324,-17.192832 -12.19629,-25.751952 -1.465481,-3.050427 -2.924479,-6.103886 -4.381835,-9.158203 -0.492986,-1.032942 -0.985972,-2.065884 -1.493893,-3.130127 -0.93739,-1.9645 -1.87443,-3.929169 -2.81104,-5.894043 -1.96173,-4.106843 -3.94348,-8.194854 -6.01929,-12.245361 C -111,51 -111,51 -111,49 c -1.15887,-0.0825 -2.31773,-0.165 -3.51172,-0.25 -4.72207,-0.590909 -8.22742,-2.384559 -12.30078,-4.75 -4.93665,-2.833107 -4.93665,-2.833107 -10.1875,-5 0,-0.99 0,-1.98 0,-3 8.56507,-2.758613 17.28783,-4.845713 26.02161,-6.985992 15.144349,-3.717209 30.193856,-7.669659 45.185665,-11.958588 9.527956,-2.721487 19.092053,-5.198273 28.718506,-7.5422364 C -32.044551,8.2687908 -27.048217,6.8962964 -22.04541,5.5488281 -17.908063,4.4386877 -13.766631,3.3440303 -9.625,2.25 -8.3651428,1.9154883 -8.3651428,1.9154883 -7.079834,1.5742187 -1.1152528,0 -1.1152528,0 0,0 Z"
         fill="#f43027"
         transform="translate(892,479)"
         id="path9" />
      <path
         d="m 0,0 c 5.6862556,3.0537299 10.681392,6.6391281 15.75,10.625 0.788423,0.61593 1.576846,1.23186 2.38916,1.866455 5.449198,4.295861 10.65075,8.754571 15.696777,13.520264 2.112203,2.020326 2.112203,2.020326 4.453125,3.632812 C 38.853672,30.091836 39.418281,30.539141 40,31 c 0,0.66 0,1.32 0,2 0.99,0.33 1.98,0.66 3,1 1.105469,1.898437 1.105469,1.898437 2.1875,4.375 2.358133,4.961175 5.250495,9.102616 8.535156,13.488281 3.60294,4.962539 6.86084,10.138529 10.167969,15.300781 2.195667,3.427002 4.417537,6.835339 6.65625,10.234375 8.158747,12.395821 16.03663,24.927333 23.67627,37.649413 1.810581,3.00818 3.634365,6.00804 5.460449,9.00684 C 108.85428,139.16103 117.54132,154.4864 126,170 c 0.46116,0.84498 0.92232,1.68996 1.39746,2.56055 6.21356,11.4182 6.21356,11.4182 7.67676,15.25976 0.71845,2.3462 0.71845,2.3462 2.92578,3.17969 -0.60146,4.36814 -1.67663,8.18493 -3.25781,12.29687 -0.45706,1.19706 -0.91411,2.39412 -1.38501,3.62745 -0.49367,1.27537 -0.98774,2.5506 -1.48218,3.82568 -0.50675,1.31547 -1.01318,2.63106 -1.51929,3.94678 -0.75543,1.9627 -1.51163,3.92508 -2.27055,5.88644 -1.36991,3.54237 -2.71329,7.09237 -4.01875,10.65897 -3.12851,8.47383 -6.8333,16.35236 -11.15332,24.28564 -4.846,8.9921 -8.76658,18.36335 -12.74317,27.76319 -1.177331,2.72614 -2.410762,5.42053 -3.658201,8.11523 C 93.795526,297.34356 91.461326,303.40539 89.125,309.5 82.528754,326.52212 75.271256,343.25766 68,360 c -0.66,-0.33 -1.32,-0.66 -2,-1 -0.670166,-2.71216 -0.670166,-2.71216 -1.253906,-6.30078 -0.214629,-1.28713 -0.429258,-2.57426 -0.650391,-3.90039 -0.219753,-1.37039 -0.43915,-2.74083 -0.658203,-4.11133 -0.435997,-2.66323 -0.87641,-5.32571 -1.316406,-7.98828 -0.28726,-1.78145 -0.28726,-1.78145 -0.580323,-3.59888 C 61.119779,330.68672 60.617313,328.36664 60,326 c -0.351573,-2.1012 -0.683127,-4.20579 -1,-6.3125 -0.175312,-1.15242 -0.350625,-2.30484 -0.53125,-3.49219 -0.348267,-2.37402 -0.666487,-4.75249 -0.96875,-7.13281 -0.40494,-3.03351 -0.40494,-3.03351 -1.418457,-5.7002 -1.297648,-4.03413 -2.10119,-8.06244 -2.886231,-12.22168 -0.164164,-0.85433 -0.328328,-1.70866 -0.497467,-2.58888 C 52.168472,285.78544 51.64611,283.01787 51.125,280.25 50.947029,279.31081 50.769058,278.37161 50.585693,277.40396 48.40055,265.85612 46.290197,254.30412 44.5,242.6875 44.340317,241.65335 44.180635,240.6192 44.016113,239.55371 42.9964,232.6621 42.9964,232.6621 43.01416,229.396 42.998743,226.78728 42.384537,224.63321 41.624023,222.15186 37.483508,207.87388 34.867889,193.02187 32.528564,178.35718 31.257605,170.41895 29.814739,162.52256 28.3125,154.625 26.409349,144.6051 24.55383,134.57807 22.753906,124.53906 22.558014,123.44667 22.362122,122.35428 22.160294,121.22879 21.186062,115.79063 20.215131,110.3519 19.247314,104.9126 17.389791,94.506035 15.453475,84.124615 13.349106,73.765045 12.06341,67.406809 10.948584,61.032824 9.9375,54.625 8.9132884,48.293875 7.8507023,42.006364 6.4375,35.75 4.9756971,29.275167 4.0043152,22.759023 3.0895996,16.188477 2.3149812,10.716048 1.2579814,5.3828648 0,0 Z"
         fill="#eb2925"
         transform="translate(168,454)"
         id="path10" />
      <path
         d="m 0,0 c 0.33,0 0.66,0 1,0 -0.58457776,6.5841612 -2.7546902,12.35151 -5.0507812,18.519531 -0.4103751,1.119818 -0.8207502,2.239636 -1.2435608,3.393387 -1.3333894,3.635429 -2.6758538,7.267437 -4.018158,10.899582 -1.83376,4.99238 -3.662858,9.986464 -5.492188,14.980469 -0.676478,1.843742 -0.676478,1.843742 -1.366622,3.724731 -4.145925,11.311967 -8.173104,22.663171 -12.136551,34.040161 C -31.060009,93.433794 -33.957679,101.23158 -37,109 c -1.135664,-0.0464 -2.271328,-0.0928 -3.441406,-0.14062 -4.764662,0.004 -8.942571,1.07761 -13.496094,2.39062 -1.680455,0.46418 -3.361457,0.92638 -5.042969,1.38672 -0.839663,0.23122 -1.679326,0.46245 -2.544433,0.70068 -4.954391,1.32632 -9.958547,2.43761 -14.959473,3.57276 -3.572137,0.83872 -7.110318,1.7806 -10.652344,2.73828 -12.228127,3.2948 -24.528101,6.31683 -36.814231,9.38647 -2.12886,0.53192 -4.25761,1.06424 -6.38636,1.59659 -24.34319,6.0854 -48.72378,12.00107 -73.14334,17.7728 -12.02285,2.84281 -24.04247,5.6889 -36.01935,8.7207 -2.03241,0.50839 -4.06496,1.0162 -6.09766,1.52344 -3.07283,0.76702 -6.14303,1.54148 -9.21093,2.32812 -8.64655,2.13735 -17.34621,3.12303 -26.19141,4.02344 0,0.66 0,1.32 0,2 -1.98,0.33 -3.96,0.66 -6,1 -0.66,-1.32 -1.32,-2.64 -2,-4 8.20332,-6.09034 16.47905,-12.05263 24.875,-17.875 9.25896,-6.4386 18.23786,-13.18493 27.125,-20.125 1.20181,-0.93361 2.40364,-1.8672 3.60547,-2.80078 4.7593,-3.70992 9.4926,-7.44669 14.15234,-11.28125 7.93371,-6.52639 16.00688,-12.77022 24.3086,-18.822999 4.77829,-3.488876 9.48849,-7.039946 14.12109,-10.719971 9.07334,-7.20117 18.36044,-14.112493 27.69922,-20.964844 1.23532,-0.907218 1.23532,-0.907218 2.4956,-1.832763 1.65437,-1.212822 3.31093,-2.422652 4.96973,-3.629395 4.08704,-2.988551 7.94731,-6.054043 11.71045,-9.447998 5.90086,-4.748743 12.93796,-6.482102 20.06934,-8.619141 5.61683,-1.725019 11.17382,-3.634358 16.74316,-5.505859 1.949712,-0.650524 3.899894,-1.299622 5.850128,-1.948578 5.517158,-1.835924 11.031801,-3.67913 16.542984,-5.532913 3.618183,-1.21683 7.237316,-2.430817 10.856888,-3.643509 0.726981,-0.243623 1.453962,-0.487245 2.202972,-0.738251 15.532572,-5.19671 31.142258,-10.147881 46.768219,-15.0556943 0.920023,-0.290165 1.840046,-0.5803299 2.787949,-0.8792877 1.736932,-0.5477571 3.4746634,-1.0929842 5.2132874,-1.6353455 C -3.15811,2.007864 -3.15811,2.007864 0,0 Z"
         fill="#fe4436"
         transform="translate(452,276)"
         id="path11" />
      <path
         d="m 0,0 c 0.66,0 1.32,0 2,0 1.6551645,2.4687199 3.1833686,4.9402575 4.6875,7.5 0.9961014,1.6622347 1.993569,3.323651 2.9921875,4.984375 0.5359275,0.893965 1.0718555,1.78793 1.6240235,2.708984 2.951835,4.884039 5.980292,9.719893 9.008789,14.556641 0.950361,1.5192 0.950361,1.5192 1.919922,3.069092 5.425662,8.660349 10.90746,17.284371 16.404297,25.899658 3.785469,5.935932 7.540077,11.891256 11.281982,17.854736 2.890903,4.593019 5.875705,9.103397 8.962158,13.567871 C 60,92 60,92 60,94 64.339176,90.186784 67.091907,85.851198 70.117187,80.953125 71.949662,78.078954 73.900502,75.356974 75.9375,72.625 80.356743,66.640967 84.183783,60.380106 88,54 c 0.501445,-0.821133 1.002891,-1.642266 1.519531,-2.488281 1.707922,-2.897609 3.281924,-5.851571 4.855469,-8.824219 2.257914,-4.214773 4.583221,-8.306581 7.17578,-12.320313 2.52888,-4.130724 4.83357,-8.393902 7.15186,-12.645751 C 110.85222,13.833625 113.1613,10.437912 116,7 c 1.04451,-1.9771165 2.05698,-3.97251 3,-6 0.33,0 0.66,0 1,0 0.10252,8.6056162 -0.1449,17.108045 -0.8125,25.6875 -0.13257,1.736609 -0.13257,1.736609 -0.26782,3.508301 -1.44562,18.166743 -3.79438,36.194962 -6.40232,54.224853 -0.59738,4.13298 -1.19233,8.266307 -1.78714,12.399658 -1.11774,7.765418 -2.23785,15.530498 -3.35926,23.295388 -0.65269,4.51953 -1.30499,9.03911 -1.95617,13.55886 -3.38216,23.47312 -6.828682,46.93549 -10.368342,70.3854 -0.744487,4.93246 -1.485317,9.86545 -2.224156,14.79876 -1.153325,7.70053 -2.31161,15.40009 -3.505886,23.0944 -0.140508,0.90695 -0.281015,1.81389 -0.425781,2.74831 -0.441927,2.84965 -0.884874,5.69913 -1.328125,8.54857 -0.151797,0.97682 -0.303594,1.95363 -0.459991,2.96005 C 84.829869,270.82313 82.499238,285.4237 80,300 c -6.03956,-4.91174 -8.76281,-8.10103 -10,-16 -0.823428,-4.02499 -1.724313,-8.03287 -2.617188,-12.04297 -0.263925,-1.18563 -0.52785,-2.37126 -0.799774,-3.59282 -2.775357,-12.36692 -5.760262,-24.68018 -8.797393,-36.98506 -0.921109,-3.73407 -1.836067,-7.46961 -2.750489,-11.20532 C 52.445411,209.6297 49.843343,199.11352 46.773926,188.69751 45.676755,184.87333 44.812817,181.01784 44,177.125 c -1.662103,-7.69739 -3.508761,-15.33234 -5.452637,-22.96338 -0.597123,-2.35813 -1.184455,-4.71856 -1.770019,-7.07959 -0.212132,-0.85416 -0.424263,-1.70833 -0.642823,-2.58838 -0.403575,-1.62579 -0.806482,-3.25175 -1.208496,-4.87793 C 33.211476,132.73021 31.379942,125.8766 29.542419,119.0231 20.054407,83.63496 20.054407,83.63496 16.599609,68.785645 15.503961,64.081418 14.332339,59.411239 13.0625,54.75 10.958641,47.021712 9.1362532,39.232088 7.2946777,31.437744 5.5367082,24.062998 3.6218501,16.751908 1.4729004,9.4812012 0.49964077,6.1297573 0,3.5309644 0,0 Z"
         fill="#e72422"
         transform="translate(605,232)"
         id="path13" />
      <path
         d="M 0,0 C 4.2177878,0.59361458 7.2846867,3.0633614 10.6875,5.4375 16.173383,9.186728 21.742819,12.683206 27.5,16 c 5.401031,3.120285 10.657034,6.363721 15.8125,9.875 5.733845,3.902436 11.597473,7.524098 17.5625,11.0625 7.02541,4.169758 13.942859,8.461193 20.781006,12.930908 5.060231,3.30746 10.160167,6.544674 15.281494,9.756592 8.81029,5.536169 17.5132,11.230779 26.21191,16.940186 7.1433,4.682348 14.3217,9.303512 21.53809,13.872314 6.57382,4.162122 13.09544,8.382603 19.54687,12.73169 5.58865,3.75047 11.26934,7.35173 16.95313,10.95581 1.89195,1.20569 3.78388,2.41142 5.67578,3.61719 2.96159,1.88538 5.93152,3.75156 8.92969,5.57812 6.65455,4.16648 12.22104,8.78627 16.20703,15.67969 0,1.32 0,2.64 0,4 -1.98,0 -3.96,0 -6,0 -0.19529,1.21816 -0.19529,1.21816 -0.39453,2.46094 -0.69627,4.06981 -1.48248,8.11568 -2.29297,12.16406 -0.26381,1.31786 -0.26381,1.31786 -0.53296,2.66235 -1.39134,6.89577 -2.85647,13.77416 -4.34204,20.65015 -2.85651,13.2363 -5.62766,26.49005 -8.38376,39.74759 -0.48896,2.35158 -0.97847,4.70304 -1.46857,7.05438 C 185.93234,240.47119 183.31563,253.20203 181,266 c -1.88599,-0.33325 -1.88599,-0.33325 -4,-1 -1.82422,-2.66797 -1.82422,-2.66797 -3.6875,-6.1875 -0.6984,-1.28702 -1.40034,-2.57213 -2.10547,-3.85547 -0.36142,-0.65919 -0.72284,-1.31839 -1.09521,-1.99756 -1.7426,-3.07116 -3.6715,-6.01076 -5.61182,-8.95947 -6.82217,-10.48893 -12.76136,-21.19369 -18.00391,-32.54956 -3.30769,-7.16011 -6.8495,-14.19904 -10.39026,-21.24561 -1.49679,-2.98434 -2.98477,-5.97303 -4.47222,-8.96203 -1.53096,-3.07633 -3.06448,-6.15138 -4.59797,-9.22644 -0.77804,-1.56117 -1.55538,-3.1227 -2.33203,-4.68457 -3.98443,-8.01133 -7.98781,-15.99128 -12.32226,-23.8208 -2.45498,-4.46261 -4.78502,-8.9906 -7.13135,-13.51099 -1.04793,-2.01315 -2.09611,-4.02617 -3.14453,-6.03906 -0.77851,-1.49515 -0.77851,-1.49515 -1.57276,-3.02051 -2.315691,-4.44254 -4.640204,-8.88038 -6.97021,-13.31543 -0.38833,-0.74121 -0.77666,-1.48242 -1.176758,-2.24609 C 87.508126,96.004865 87.508126,96.004865 82,87 81.01,86.814375 81.01,86.814375 80,86.625 79.34,86.41875 78.68,86.2125 78,86 77.318675,84.339272 76.652579,82.672233 76,81 74.150283,79.949789 74.150283,79.949789 72,79 70.311261,77.355702 68.646945,75.686158 67,74 66.01,73.175 65.02,72.35 64,71.5 61.1489,69.124083 58.592017,66.653732 56,64 55.391562,63.401875 54.783125,62.80375 54.15625,62.1875 50.107901,58.201433 46.284474,54.121955 42.640625,49.761719 41.014624,47.903806 41.014624,47.903806 38.796875,46.394531 38.203906,45.934336 37.610937,45.474141 37,45 37,44.34 37,43.68 37,43 36.443125,42.773125 35.88625,42.54625 35.3125,42.3125 32.338404,40.6245 30.279911,38.533235 28,36 28,35.34 28,34.68 28,34 27.108734,33.616061 27.108734,33.616061 26.199463,33.224365 23.781824,31.878549 22.548167,30.547148 20.808594,28.410156 18.212261,25.338234 15.522859,22.507266 12.597656,19.746094 11.853223,19.036465 11.108789,18.326836 10.341797,17.595703 8.8058542,16.141361 7.2586621,14.69882 5.7011719,13.267578 0.24230736,8.0096534 0.24230736,8.0096534 -0.50048828,4.9145508 -0.50390625,2.9726563 -0.50390625,2.9726563 0,0 Z"
         fill="#9a0f0f"
         id="path14"
         transform="translate(471,391)" />
      <path
         d="m 0,0 c 0.886875,0.78375 1.77375,1.5675 2.6875,2.375 3.3804177,2.9043025 6.8893034,5.6185281 10.4375,8.3125 5.743581,4.371037 11.263089,8.960803 16.746094,13.652344 2.899422,2.477947 5.85072,4.886746 8.816406,7.285156 C 43.953643,35.911396 48.977785,40.432818 54,45 59.193209,49.649734 64.537117,54.083501 69.945312,58.480469 73.335663,61.276857 76.671347,64.130768 80,67 c 4.124634,3.554586 8.272079,7.067923 12.5,10.5 4.843112,3.931468 9.57624,7.978794 14.2998,12.052002 3.60585,3.102393 7.25224,6.142656 10.9502,9.135498 3.50884,2.84709 6.90867,5.77063 10.25,8.8125 4.24301,3.86215 8.62343,7.50754 13.08203,11.11719 3.73352,3.04879 7.4032,6.1691 11.07471,9.29199 3.47532,2.94994 6.98756,5.84728 10.53076,8.71582 4.41369,3.59373 8.66967,7.32549 12.875,11.16016 3.23454,2.93908 6.52638,5.81137 9.82031,8.68359 0.53367,0.50531 1.06735,1.01062 1.61719,1.53125 0,0.33 0,0.66 0,1 -13.02259,0.14884 -25.99107,-0.32231 -39,-0.875 -2.1743,-0.09 -4.34862,-0.17964 -6.52295,-0.26904 -5.66838,-0.23384 -11.33658,-0.47159 -17.00476,-0.71021 -5.80577,-0.2437 -11.61169,-0.48362 -17.4176,-0.72388 C 95.702971,155.95158 84.351431,155.47713 73,155 59.098119,128.55001 59.098119,128.55001 53.1875,115.5 c -1.083084,-2.35949 -2.166417,-4.71886 -3.25,-7.07812 -0.504023,-1.1028 -1.008047,-2.20559 -1.527344,-3.3418 C 44.187805,95.857575 39.876834,86.683394 35.3125,77.625 31.851535,70.756248 28.470065,63.849608 25.121429,56.925476 24.272447,55.171378 23.420082,53.418917 22.567627,51.666504 19.793842,45.9176 17.19038,40.165174 14.876465,34.216309 13.60313,30.996438 12.159817,27.884383 10.6875,24.75 10.394802,24.124482 10.102104,23.498965 9.8005371,22.854492 8.2460638,19.554493 6.6479094,16.281668 4.9921875,13.03125 4.6690356,12.396064 4.3458838,11.760879 4.0129394,11.106445 3.1103948,9.3435505 2.1980446,7.5856858 1.2851562,5.828125 0,3 0,3 0,0 Z"
         fill="#a51111"
         transform="translate(506,656)"
         id="path15" />
      <path
         d="m 0,0 c 4.6260198,0.52646867 7.7739793,2.5808043 11.5,5.1875 1.343466,0.9170833 2.687233,1.8337251 4.03125,2.75 0.720586,0.495 1.441172,0.99 2.183594,1.5 4.072062,2.784316 8.179789,5.515135 12.285156,8.25 0.882283,0.588618 1.764565,1.177236 2.673584,1.783691 C 43.064094,26.39324 53.530819,33.197792 64,40 c 1.731819,1.126228 3.463592,2.252527 5.195312,3.378906 4.116908,2.67729 8.234793,5.353073 12.353028,8.028321 3.315722,2.154129 6.630932,4.309045 9.946045,6.464111 1.665719,1.082725 3.331571,2.165246 4.997558,3.247558 4.219057,2.74121 8.435867,5.485784 12.648687,8.236573 8.32441,5.430967 16.67409,10.805374 25.1228,16.041015 5.21244,3.243475 10.32643,6.620986 15.41845,10.049805 4.65301,3.12985 9.37272,6.137381 14.14624,9.081051 1.98402,1.34528 3.55445,2.71344 5.17188,4.47266 -0.33,0.99 -0.66,1.98 -1,3 -0.23571,3.67972 -0.38158,7.35851 -0.52344,11.04297 -0.42955,3.56673 -1.30344,6.35379 -2.5928,9.6776 -0.92241,2.37911 -1.80234,4.77061 -2.6738,7.16883 -0.31753,0.87259 -0.63506,1.74518 -0.96222,2.64422 -1.45202,3.99856 -2.90317,7.99744 -4.35272,11.9969 -0.75505,2.08179 -1.51121,4.16318 -2.26856,6.24414 C 149.52963,174.78034 144.63572,188.83478 140,203 c -4.48241,-1.91656 -5.72195,-4.79362 -7.6875,-9.0625 -0.70658,-1.4696 -1.41497,-2.93832 -2.125,-4.40625 -0.36223,-0.75539 -0.72445,-1.51078 -1.09766,-2.28906 -10.92706,-22.48077 -23.95773,-43.93891 -37.157223,-65.13233 -1.838921,-2.95909 -3.665664,-5.92526 -5.487305,-8.89502 C 80.671866,103.8111 74.783213,94.518096 68.602539,85.377441 65.354021,80.558114 62.130787,75.721826 58.905365,70.887024 57.715228,69.104041 56.523367,67.32222 55.331299,65.540527 44.38943,49.168291 44.38943,49.168291 43,45 41.512949,43.453839 41.512949,43.453839 39.625,41.9375 36.323535,39.149337 33.149236,36.27145 30,33.3125 21.337528,25.40118 11.811766,18.419481 2,12 2,12.66 2,13.32 2,14 0,15.625 0,15.625 -2,17 -2.2208462,10.90219 -2.0116768,5.7835706 0,0 Z"
         fill="#d21919"
         id="path16"
         transform="translate(167,443)" />
      <path
         d="M 0,0 C 3.7685876,1.3065312 6.228219,2.8364418 9.125,5.5625 12.402022,8.5695862 15.728721,11.453432 19.1875,14.25 25.904462,19.702814 32.455469,25.34258 39,31 c 0.752812,0.649687 1.505625,1.299375 2.28125,1.96875 2.87572,2.498577 5.704451,5.017682 8.46875,7.640625 0.485735,0.456812 0.97147,0.913623 1.471924,1.384277 1.395247,1.31506 2.780307,2.640903 4.164795,3.967285 C 58.199908,48.155982 59.443382,49.031994 63,49 c 2.503757,-1.143543 4.673945,-2.315087 7,-3.75 1.41382,-0.829461 2.829275,-1.656141 4.246094,-2.480469 0.759096,-0.44521 1.518193,-0.89042 2.300293,-1.349121 4.458941,-2.581306 8.977726,-5.044683 13.516113,-7.48291 0.879785,-0.488877 1.75957,-0.977754 2.666016,-1.481445 6.012188,-3.212778 10.207814,-4.317003 17.037114,-2.870118 0.81984,0.260391 1.63968,0.520782 2.48437,0.789063 0.83016,0.255234 1.66031,0.510469 2.51563,0.773437 C 117,32 117,32 120,34 c 1.01812,3.054348 1.13258,5.144004 1.14526,8.341797 0.006,1.091232 0.0128,2.182463 0.0193,3.306763 0.002,1.767244 0.002,1.767244 0.003,3.57019 0.003,1.209423 0.007,2.418845 0.0101,3.664917 0.005,2.558793 0.007,5.117593 0.007,7.676392 0.002,3.9241 0.0204,7.847921 0.0393,11.771972 0.003,2.483072 0.005,4.966145 0.006,7.449219 0.007,1.178163 0.0144,2.356326 0.0218,3.57019 -0.003,1.091232 -0.006,2.182464 -0.009,3.306763 10e-4,0.961359 0.003,1.922717 0.004,2.913208 C 121,92 121,92 119,95 c -5.00983,1.338585 -10.17712,1.144541 -15.32812,1.132812 -1.3829,0.0023 -1.3829,0.0023 -2.79374,0.0047 -3.042757,0.0025 -6.085392,-0.0038 -9.12814,-0.0125 -1.044241,-0.0025 -2.088483,-0.0051 -3.164368,-0.0077 -6.701946,-0.01901 -13.403695,-0.05522 -20.105529,-0.09769 -3.491091,-0.01965 -6.982137,-0.03139 -10.473267,-0.04157 -5.699893,-0.01915 -11.398979,-0.06618 -17.098511,-0.132629 -2.173842,-0.02178 -4.347783,-0.03537 -6.521728,-0.04041 -3.054104,-0.0093 -6.106327,-0.04989 -9.160035,-0.09796 -1.334678,0.0059 -1.334678,0.0059 -2.696319,0.01189 C 14.549727,95.533948 8.1438076,92.733746 2.125,87.5 1.073125,86.2625 1.073125,86.2625 0,85 -1.051875,83.948125 -1.051875,83.948125 -2.125,82.875 -6.5323303,76.117093 -7.2441198,68.784361 -7.2304687,60.851562 c 0.00182,-1.169106 0.00182,-1.169106 0.00368,-2.361831 C -7.1101705,49.253825 -5.8526702,40.1945 -4.5625,31.0625 c 0.3484792,-2.541691 0.6935443,-5.083823 1.0375061,-7.626129 0.219351,-1.620019 0.4404712,-3.239799 0.6635132,-4.859314 C -2.1482786,13.338939 -1.5922926,8.1091494 -1.2263184,2.8337402 -1,1 -1,1 0,0 Z"
         fill="#D11A18"
         id="path17"
         transform="translate(888,621)"
         style="fill:#be1816;fill-opacity:1" />
      <path
         d="m 0,0 c -0.56032394,4.4304588 -1.6774265,7.851265 -3.6679688,11.839844 -0.8348291,1.694553 -0.8348291,1.694553 -1.6865234,3.42334 -0.2982165,0.597379 -0.5964331,1.194759 -0.9036865,1.810241 -1.6091613,3.227729 -3.1891016,6.469683 -4.7691653,9.711731 -0.32868,0.673656 -0.657361,1.347312 -0.996002,2.041382 C -15.565865,36.11555 -18.927714,43.483493 -22.25,50.875 c -0.293685,0.653212 -0.587369,1.306425 -0.889954,1.979431 -6.250148,13.920844 -12.330569,27.914091 -18.344711,41.938278 -1.171963,2.730619 -2.347126,5.459851 -3.522629,8.188951 -0.845942,1.96771 -1.687097,3.93743 -2.528106,5.90726 C -53.260098,122.1841 -53.260098,122.1841 -56,126 c -3.258584,0.90667 -6.491536,1.17571 -9.859375,1.37305 -1.408019,0.0851 -1.408019,0.0851 -2.844482,0.17199 -1.507841,0.086 -1.507841,0.086 -3.046143,0.17371 -1.57455,0.0942 -1.57455,0.0942 -3.180908,0.19031 -3.356179,0.20025 -6.71261,0.39582 -10.069092,0.59094 -4.395929,0.25881 -8.791741,0.51956 -13.1875,0.78125 -1.569474,0.0931 -1.569474,0.0931 -3.17065,0.18799 -7.22094,0.43267 -14.43335,0.92169 -21.64185,1.53076 0.67632,-4.38431 2.22486,-8.25611 3.95703,-12.30859 0.29881,-0.71028 0.59761,-1.42055 0.90547,-2.15235 0.64362,-1.5292 1.28923,-3.05757 1.93663,-4.58517 1.7265,-4.07426 3.43889,-8.15443 5.15009,-12.23514 0.34611,-0.824874 0.69223,-1.649748 1.04883,-2.499619 3.14339,-7.513261 6.14305,-15.079005 9.12695,-22.656631 5.416389,-13.666108 11.235972,-27.094722 17.454102,-40.412109 1.280981,-2.840169 2.429445,-5.692926 3.538086,-8.603516 4.086713,-10.112379 4.086713,-10.112379 8.812011,-12.536621 4.941664,-1.669972 10.000808,-2.175767 15.169922,-2.676758 5.133557,-0.5901731 10.159129,-1.7144336 15.213379,-2.770996 2.105326,-0.4199887 4.210795,-0.8392565 6.316406,-1.2578125 7.36418,-1.4893847 14.700434,-3.1065279 22.024658,-4.7810059 1.339377,-0.2998278 1.339377,-0.2998278 2.705811,-0.60571285 C -8.8623535,0.74031982 -8.084082,0.5626709 -7.2822266,0.37963867 -4.817973,-0.03027941 -2.4936471,-0.06473785 0,0 Z"
         fill="#840e0e"
         transform="translate(359,684)"
         id="path18" />
      <path
         d="M 0,0 C 1.2355664,0.01740234 1.2355664,0.01740234 2.4960938,0.03515625 3.3223828,0.04417969 4.1486719,0.05320313 5,0.0625 c 0.6380859,0.01160156 1.2761719,0.02320313 1.9335937,0.03515625 0,0.66 0,1.31999995 0,2.00000005 1.6500001,0 3.3000003,0 5.0000003,0 -1.333997,4.6689895 -3.2888433,7.9982747 -6.0000003,11.9999997 -1.5103191,2.41895 -2.9754847,4.864118 -4.4375,7.3125 -0.396145,0.661531 -0.79228999,1.323062 -1.2004394,2.004639 -2.4727114,4.145532 -4.864133,8.325496 -7.1784668,12.561767 -2.2891159,4.102278 -4.7493345,8.103902 -7.1835935,12.121094 -1.898568,3.147478 -3.771587,6.309211 -5.636719,9.476563 -9.655938,16.333135 -9.655938,16.333135 -15.414062,23.914062 -1.513656,2.026297 -2.953159,4.061639 -4.367188,6.15625 -0.409036,0.604651 -0.818071,1.209302 -1.239502,1.832276 -0.796652,1.183236 -1.588369,2.369813 -2.374512,3.560058 -0.939603,1.388583 -1.948227,2.729986 -2.968017,4.060791 -0.66,0 -1.32,0 -2,0 -1.321778,-1.718017 -1.321778,-1.718017 -2.835938,-4.144531 -0.563481,-0.894851 -1.126963,-1.789702 -1.707519,-2.71167 -0.604409,-0.975579 -1.208819,-1.951157 -1.831543,-2.956299 -0.626323,-0.998137 -1.252647,-1.996274 -1.897949,-3.024658 -1.292678,-2.060664 -2.582531,-4.123102 -3.869629,-6.187256 -2.159342,-3.459261 -4.337369,-6.906361 -6.519043,-10.351562 -1.477533,-2.333881 -2.95132,-4.670091 -4.424317,-7.006836 -1.916885,-3.039651 -3.838876,-6.075967 -5.765625,-9.109375 C -84.218151,40.101102 -91.374208,28.511268 -98.5,16.898437 c -2.83269,-4.614819 -5.68807,-9.2143055 -8.56641,-13.8007807 3.27921,-1.9588195 3.76174,-2.055595 7.750004,-1.1250001 1.0725,0.37125 2.145,0.7425001 3.25,1.1250001 0,-0.6600001 0,-1.3200001 0,-2.0000001 8.998185,-0.023338 17.99636,-0.041023 26.994569,-0.051812 4.179799,-0.00518 8.359578,-0.012194 12.539366,-0.023627 4.045997,-0.010996 8.091973,-0.016872 12.137984,-0.019438 1.531076,-0.00182 3.062152,-0.005386 4.593219,-0.0108528 8.845299,-0.0302793 17.550319,0.1994886 26.367537,0.9880695 3.5938633,0.1255762 6.8368854,-0.2180574 10.3673247,-0.8823395 1,-0.99999994 1,-0.99999994 3.0664063,-1.0976564 z"
         fill="#fe4134"
         transform="translate(713.06641,228.90234)"
         id="path19" />
      <path
         d="m 0,0 c 0.66,0 1.32,0 2,0 1.6551645,2.4687199 3.1833686,4.9402575 4.6875,7.5 0.9961014,1.6622347 1.993569,3.323651 2.9921875,4.984375 0.5359275,0.893965 1.0718555,1.78793 1.6240235,2.708984 2.951835,4.884039 5.980292,9.719893 9.008789,14.556641 0.950361,1.5192 0.950361,1.5192 1.919922,3.069092 5.427197,8.6628 10.910886,17.28906 16.408203,25.90747 3.748652,5.878667 7.47208,11.773122 11.190186,17.671143 0.446418,0.707937 0.892836,1.415874 1.352783,2.145264 0.667452,1.09248 0.667452,1.09248 1.348388,2.207031 1.447634,2.305342 1.447634,2.305342 3.289551,4.484375 6.970729,9.131501 6.806575,19.346965 7.490967,30.390625 0.152732,2.10685 0.307632,4.21353 0.4646,6.32007 1.075152,14.84566 1.852298,29.71202 2.505371,44.58179 0.582394,13.25218 1.356639,26.4862 2.217529,39.72314 0.09005,1.41323 0.09005,1.41323 0.181915,2.85501 0.653411,10.22195 1.407977,20.42957 2.349335,30.62936 0.08117,0.901 0.162341,1.80199 0.245972,2.73029 0.07932,0.82861 0.158635,1.65721 0.240356,2.51093 0.06901,0.73087 0.13801,1.46175 0.209107,2.21478 0.192559,1.90531 0.192559,1.90531 1.273315,3.80963 0.211451,2.07927 0.369048,4.16412 0.5,6.25 0.0825,1.24781 0.165,2.49563 0.25,3.78125 0.166667,2.64583 0.333333,5.29167 0.5,7.9375 0.0825,1.24781 0.165,2.49563 0.25,3.78125 0.108281,1.72477 0.108281,1.72477 0.21875,3.48437 0.111754,2.72199 0.111754,2.72199 1.28125,4.76563 0.391294,2.54198 0.744791,5.07392 1.0625,7.625 0.136318,1.05961 0.136318,1.05961 0.275391,2.14062 C 77.561831,292.51 77.781338,294.25495 78,296 74.210937,295.27344 74.210937,295.27344 72.3125,292.8125 70.906303,289.79922 70.507631,287.27648 70,284 c -0.823428,-4.02499 -1.724313,-8.03287 -2.617188,-12.04297 -0.263925,-1.18563 -0.52785,-2.37126 -0.799774,-3.59282 -2.775357,-12.36692 -5.760262,-24.68018 -8.797393,-36.98506 -0.921109,-3.73407 -1.836067,-7.46961 -2.750489,-11.20532 C 52.445411,209.6297 49.843343,199.11352 46.773926,188.69751 45.676755,184.87333 44.812817,181.01784 44,177.125 c -1.662103,-7.69739 -3.508761,-15.33234 -5.452637,-22.96338 -0.597123,-2.35813 -1.184455,-4.71856 -1.770019,-7.07959 -0.212132,-0.85416 -0.424263,-1.70833 -0.642823,-2.58838 -0.403575,-1.62579 -0.806482,-3.25175 -1.208496,-4.87793 C 33.211476,132.73021 31.379942,125.8766 29.542419,119.0231 20.054407,83.63496 20.054407,83.63496 16.599609,68.785645 15.503961,64.081418 14.332339,59.411239 13.0625,54.75 10.958641,47.021712 9.1362532,39.232088 7.2946777,31.437744 5.5367082,24.062998 3.6218501,16.751908 1.4729004,9.4812012 0.49964077,6.1297573 0,3.5309644 0,0 Z"
         fill="#ca1617"
         transform="translate(605,232)"
         id="path20" />
      <path
         d="M 0,0 C 0.31296578,1.5648289 0.62593003,3.1296582 0.93888855,4.6944885 1.2294027,6.1470282 1.5199414,7.5995629 1.8105011,9.0520935 2.6670335,13.334178 3.5230851,17.616358 4.378418,21.898682 c 1.8872025,9.445771 3.7792514,18.890522 5.683289,28.332916 9.101724,45.141711 9.101724,45.141711 12.625793,64.455902 0.124737,0.67836 0.249474,1.35672 0.377991,2.05563 C 25,127.30373 25,127.30373 25,132 c -3.665001,-1.4679 -5.230809,-3.32348 -7.433594,-6.55859 -0.642436,-0.93393 -1.284873,-1.86786 -1.946777,-2.83008 -0.678853,-1.00612 -1.357705,-2.01223 -2.057129,-3.04883 -0.707212,-1.03318 -1.414424,-2.06637 -2.143066,-3.13086 C 9.9684023,114.31002 8.5211433,112.18582 7.0776367,110.05908 5.1981194,107.29171 3.3075944,104.53245 1.4101562,101.77734 -3.5382554,94.587746 -8.449592,87.372731 -13.3125,80.125 c -0.718008,-1.069922 -1.436016,-2.139844 -2.175781,-3.242188 -2.146414,-3.265673 -4.176678,-6.597094 -6.210938,-9.933593 -2.890522,-4.732816 -5.876774,-9.388499 -8.957031,-14 -0.394206,-0.590522 -0.788413,-1.181043 -1.194565,-1.789459 -0.3976,-0.595578 -0.7952,-1.191155 -1.204849,-1.80478 C -45.788998,30.276745 -45.788998,30.276745 -50.25,21.375 -50.566465,20.749402 -50.88293,20.123804 -51.208984,19.479248 -53.135251,15.405753 -53.135251,15.405753 -52,12 c 2.360137,-0.740681 4.582428,-1.275495 7,-1.75 8.955377,-1.9180252 17.727891,-4.3581111 26.53125,-6.8759766 1.026094,-0.2922949 2.052187,-0.5845898 3.109375,-0.8857421 0.912979,-0.262566 1.825957,-0.5251319 2.766602,-0.7956544 C -8.29999,0.54586363 -4.4566276,-0.12733222 0,0 Z"
         fill="#fd8c4a"
         transform="translate(754,516)"
         id="path21" />
      <path
         d="m 0,0 c 2.234375,0.8515625 2.234375,0.8515625 5.234375,2.8515625 1.0181159,3.0543477 1.1325844,5.1440038 1.1452637,8.3417965 0.00638,1.091232 0.01276,2.182464 0.019333,3.306763 0.00111,1.178163 0.00223,2.356326 0.00337,3.57019 0.00499,1.814134 0.00499,1.814134 0.010086,3.664917 0.00507,2.558794 0.00741,5.117594 0.00725,7.676392 0.00219,3.924101 0.020353,7.847922 0.039307,11.771973 0.00293,2.483072 0.00492,4.966145 0.00586,7.449218 0.00719,1.178163 0.014371,2.356326 0.021774,3.570191 -0.00308,1.091232 -0.00615,2.182463 -0.00932,3.306763 0.00142,0.961358 0.00285,1.922717 0.00432,2.913208 -0.2472382,2.428588 -0.2472382,2.428588 -2.2472382,5.428588 -4.02483774,0.998518 -7.9225437,1.118956 -12.0546875,1.097657 -1.1085938,-0.0032 -2.217187,-0.0064 -3.359376,-0.0098 -1.142109,-0.0084 -2.284218,-0.01676 -3.460937,-0.02539 -1.165312,-0.0045 -2.330624,-0.009 -3.531249,-0.01367 -2.864636,-0.01174 -5.729166,-0.02816 -8.59375,-0.04883 0,-0.329999 0,-0.659999 0,-1 7.92,-0.329999 15.839999,-0.659999 23.9999995,-1 0,-0.659999 0,-1.32 0,-2 -1.646154,-1.033418 -3.3184844,-2.025175 -5,-3 -2.1115515,-1.578077 -4.1878575,-3.172698 -6.2500005,-4.8125 -0.598447,-0.472844 -1.196894,-0.945688 -1.813477,-1.432861 -5.683329,-4.511562 -11.283047,-9.124158 -16.872069,-13.751709 -3.904945,-3.232606 -7.833807,-6.425931 -11.814453,-9.56543 -3.319472,-2.634052 -6.352311,-5.346632 -9.25,-8.4375 3.895055,-3.338418 7.900745,-5.720026 12.417969,-8.074218 0.698455,-0.369302 1.396909,-0.738603 2.116531,-1.119095 2.215086,-1.1697043 4.433955,-2.3320134 6.653,-3.4941865 1.502207,-0.791837 3.004162,-1.58415 4.505859,-2.3769531 C -17.522996,-0.77666448 -11.80813,-3.63045 0,0 Z"
         fill="#f12f27"
         transform="translate(1002.7656,652.14844)"
         id="path22" />
      <path
         d="m 0,0 c 1.65,0 3.3,0 5,0 0.3129658,1.5648289 0.62593,3.1296582 0.9388885,4.6944885 0.2905142,1.4525397 0.5810529,2.9050744 0.8716126,4.357605 0.8565324,4.2820845 1.712584,8.5642645 2.5679169,12.8465885 1.887203,9.445771 3.779251,18.890522 5.683289,28.332916 9.101724,45.141711 9.101724,45.141711 12.625793,64.455902 0.124737,0.67836 0.249474,1.35672 0.377991,2.05563 C 30,127.30373 30,127.30373 30,132 c -3.665001,-1.4679 -5.230809,-3.32348 -7.433594,-6.55859 -0.964017,-1.4015 -0.964017,-1.4015 -1.94751,-2.8313 -1.017916,-1.50857 -1.017916,-1.50857 -2.056396,-3.04761 -1.057555,-1.54434 -1.057555,-1.54434 -2.136475,-3.11987 C 14.276211,113.30033 12.13789,110.15042 10,107 8.1981714,104.36428 6.3933786,101.73066 4.5854492,99.099121 3.4952217,97.503674 2.4133523,95.90248 1.340332,94.29541 -0.81226061,91.083376 -2.9015046,88.108961 -5.5,85.234375 c -2.5901718,-2.88451 -4.560661,-5.089723 -4.4462891,-9.133301 0.6223568,-4.710745 1.8954147,-9.217513 3.2602539,-13.759765 0.8785148,-2.998206 1.59551,-6.024147 2.3156739,-9.063477 C -2.410001,45.005479 -2.410001,45.005479 -1.015625,41.585937 0.41080652,37.954023 1.2452672,34.233384 2.125,30.4375 2.3067578,29.682754 2.4885156,28.928008 2.6757813,28.150391 2.8472266,27.418848 3.0186719,26.687305 3.1953125,25.933594 3.4275855,24.94444 3.4275855,24.94444 3.6645508,23.935303 4.1138567,21.670488 4.1138567,21.670488 4,18 3.67,17.67 3.34,17.34 3,17 2.6055323,11.593472 3.0934532,6.3259623 4,1 2.68,1.33 1.36,1.66 0,2 0,1.34 0,0.68 0,0 Z"
         fill="#fb9d54"
         transform="translate(749,516)"
         id="path23" />
      <path
         d="M 0,0 C 0.77214844,0.37125 1.5442969,0.7425 2.3398438,1.125 2.9083203,1.41375 3.4767969,1.7025 4.0625,2 c -2.7782163,3.409629 -6.6187885,4.9116262 -10.5,6.75 -11.521702,5.474976 -11.521702,5.474976 -21.5,13.25 -8.107511,0.274831 -13.90025,-3.298847 -20.742187,-7.1875 -3.128918,-1.872251 -3.128918,-1.872251 -6.257813,-2.8125 0,-0.99 0,-1.98 0,-3 8.067356,-2.5652643 16.248637,-4.6395667 24.468994,-6.6442871 2.226493,-0.5451687 4.449951,-1.1017444 6.673584,-1.65844728 1.435374,-0.35161681 2.870916,-0.70255225 4.306641,-1.05273437 0.654335,-0.16557907 1.30867,-0.33115814 1.982834,-0.50175476 C -11.282206,-2.3487391 -5.831545,-2.8709145 0,0 Z"
         fill="#930e0e"
         transform="translate(809.9375,506)"
         id="path24" />
      <path
         d="m 0,0 c -4.538775,4.2898127 -9.6047339,5.9491708 -15.375,8 -2.142577,0.7820751 -4.284469,1.5660298 -6.425781,2.351563 -1.725974,0.630834 -1.725974,0.630834 -3.486817,1.274414 -6.095431,2.256023 -12.156231,4.600541 -18.215881,6.950683 -2.024051,0.784781 -4.049048,1.567079 -6.074158,2.349121 -1.267154,0.49072 -2.534246,0.981598 -3.801269,1.472656 -1.109319,0.429742 -2.218638,0.859483 -3.361573,1.302247 -2.362532,0.941756 -4.695851,1.911465 -7.027832,2.923339 C -67.788796,28.335851 -70.645972,28.854866 -75,29 c -1.019146,-0.98048 -2.017387,-1.98291 -3,-3 -2.260304,-0.993734 -2.260304,-0.993734 -4.6875,-1.6875 -0.808242,-0.251367 -1.616484,-0.502734 -2.449219,-0.761719 C -85.751602,23.369023 -86.366484,23.187266 -87,23 c 3.433327,-1.900516 6.916373,-2.929563 10.6875,-3.988281 0.976049,-0.275235 0.976049,-0.275235 1.971817,-0.556031 2.112328,-0.593904 4.226374,-1.181379 6.340683,-1.768188 1.458906,-0.407784 2.917809,-0.81558 4.376709,-1.223389 10.130463,-2.821112 20.296451,-5.454388 30.513916,-7.9421383 3.401491,-0.8417116 6.7873,-1.7399669 10.171875,-2.6469727 1.184648,-0.3171094 2.369297,-0.6342187 3.589844,-0.9609375 2.183341,-0.5961515 4.36328,-1.204951 6.539062,-1.828125 C -11.840508,1.8100781 -10.872422,1.5342187 -9.875,1.25 -8.6336328,0.88648438 -8.6336328,0.88648438 -7.3671875,0.515625 -4.8453641,-0.03368306 -2.5730499,-0.09156761 0,0 Z"
         fill="#e4201f"
         transform="translate(888,481)"
         id="path25" />
      <path
         d="m 0,0 c 66.99,0 133.98,0 203,0 -0.33,0.66 -0.66,1.32 -1,2 -4.77797,1.0305433 -8.98317,0.972987 -13.83594,0.5195313 C 176.6196,1.6407324 165.04327,1.9436894 153.47388,2.0205078 138.61742,2.1101965 123.83664,1.7911263 109,1 c 0,0.66 0,1.32 0,2 C 107.96875,2.814375 106.9375,2.62875 105.875,2.4375 102.11404,2.0128756 99.690744,2.37327 96,3 91.998645,3.0957771 88.001826,3.0519718 84,3 83.01,3 82.02,3 81,3 79.415799,2.8199772 77.832534,2.6316307 76.25,2.4375 71.914437,1.9797866 68.266996,2.165153 64,3 64,2.34 64,1.68 64,1 63.156873,1.1637109 62.313745,1.3274219 61.445068,1.4960937 57.860249,2.0204412 54.500367,2.0968606 50.878906,2.0625 50.21592,2.0587134 49.552934,2.0549268 48.869858,2.0510254 46.060864,2.0348303 43.252021,2.006672 40.443115,1.9794922 38.380053,1.9612753 36.317014,1.9492664 34.253906,1.9375 33.030022,1.9258984 31.806138,1.9142969 30.545166,1.9023437 26.958787,2.0011353 23.538435,2.423824 20,3 20,2.67 20,2.34 20,2 13.4,1.67 6.8,1.34 0,1 0,0.67 0,0.34 0,0 Z"
         fill="#fd3a24"
         transform="translate(508,229)"
         id="path26" />
      <path
         d="m 0,0 c 25.74,0 51.48,0 78,0 0,0.33 0,0.66 0,1 -1.31436,0.037584 -1.31436,0.037584 -2.655273,0.075928 -3.310145,0.096215 -6.620176,0.1953668 -9.930176,0.2963867 -1.421516,0.042809 -2.843065,0.084511 -4.264649,0.125 C 50.050685,1.8145469 38.981778,2.2528989 28,4 28,3.34 28,2.68 28,2 20.41,2.33 12.82,2.66 5,3 4.34,4.65 3.68,6.3 3,8 2.01,7.67 1.02,7.34 0,7 0,4.69 0,2.38 0,0 Z"
         fill="#e73f34"
         transform="translate(459,228)"
         id="path28" />
      <path
         d="m 0,0 c 0.33,0 0.66,0 1,0 -0.50130541,24.339909 -1.0049583,48.67427 -2,73 -0.33,0 -0.66,0 -1,0 -0.7936448,-4.165385 -1.1085657,-8.056009 -1.0534668,-12.293213 0.013641,-1.224695 0.027282,-2.44939 0.041336,-3.711197 0.020761,-1.309521 0.041522,-2.619042 0.062912,-3.968246 0.019258,-1.369499 0.038312,-2.739001 0.057175,-4.108506 0.04085,-2.862097 0.086053,-5.724087 0.1339875,-8.586074 0.060687,-3.660439 0.1075687,-7.320911 0.1508302,-10.981592 0.035416,-2.825162 0.079642,-5.650136 0.1263514,-8.475132 0.031147,-2.003445 0.053728,-4.007016 0.076166,-6.010577 0.023097,-1.221543 0.046195,-2.443085 0.069992,-3.701645 0.01634,-1.072223 0.03268,-2.1444457 0.049515,-3.2491604 C -1.9931483,4.9299777 -1.2542651,2.7091462 0,0 Z"
         fill="#fa311d"
         transform="translate(890,510)"
         id="path31" />
      <path
         d="M 0,0 C 0.66,0.33 1.32,0.66 2,1 1.67,1.66 1.34,2.32 1,3 5.29,3.33 9.58,3.66 14,4 14,4.33 14,4.66 14,5 10.08335,5.0295339 6.1667289,5.046975 2.25,5.0625 1.1581641,5.0708789 0.06632812,5.0792578 -1.0585937,5.0878906 -8.4247337,5.1096839 -15.670788,4.7350759 -23,4 c 0,-0.33 0,-0.66 0,-1 6.6,0 13.2,0 20,0 0,-0.66 0,-1.32 0,-2 0.99,-0.33 1.98,-0.66 3,-1 z"
         fill="#ca0908"
         transform="translate(200,808)"
         id="path37" />
      <path
         d="M 0,0 C -0.11008274,5.1538738 -0.21735958,8.8912594 -3.25,13.1875 -6,15 -6,15 -8.8125,14.8125 -9.534375,14.544375 -10.25625,14.27625 -11,14 c 0,-0.66 0,-1.32 0,-2 1.98,0 3.96,0 6,0 0.66,-1.98 1.32,-3.96 2,-6 -0.66,0 -1.32,0 -2,0 0.375,-2.4375 0.375,-2.4375 1,-5 2,-1 2,-1 4,-1 z"
         fill="#f42a1b"
         transform="translate(877,690)"
         id="path39" />
      <path
         d="M 0,0 C 0.33,0 0.66,0 1,0 0.98839844,0.59167969 0.97679687,1.1833594 0.96484375,1.7929687 0.91677614,6.0023178 0.93993117,9.8922333 2,14 0.68,14.99 -0.64,15.98 -2,17 -2.2208462,10.90219 -2.0116768,5.7835706 0,0 Z"
         fill="#dc120f"
         transform="translate(167,443)"
         id="path56" />
      <path
         d="M 0,0 C 0.66,0.33 1.32,0.66 2,1 1.505,1.598125 1.01,2.19625 0.5,2.8125 -1.2827642,4.9702999 -1.2827642,4.9702999 -1,8 -2.32,8.33 -3.64,8.66 -5,9 -5.66,7.68 -6.32,6.36 -7,5 -4.69,3.35 -2.38,1.7 0,0 Z"
         fill="#f73d29"
         transform="translate(170,435)"
         id="path62" />
      <path
         d="M 0,0 C 0.99,0.495 0.99,0.495 2,1 2.4140625,3.2851563 2.4140625,3.2851563 2.625,6.0625 2.6997656,6.9816016 2.7745313,7.9007031 2.8515625,8.8476563 2.9250391,9.9130664 2.9250391,9.9130664 3,11 2.01,10.67 1.02,10.34 0,10 0,6.7 0,3.4 0,0 Z"
         fill="#df9f57"
         transform="translate(776,637)"
         id="path77" />
      <path
         d="M 0,0 C 0.99,0.33 1.98,0.66 3,1 2.67,4.3 2.34,7.6 2,11 1.34,10.67 0.68,10.34 0,10 0,6.7 0,3.4 0,0 Z"
         fill="#da1412"
         transform="translate(148,659)"
         id="path83" />
      <path
         d="M 0,0 C 0.33,0 0.66,0 1,0 1.33,2.31 1.66,4.62 2,7 2.99,7 3.98,7 5,7 4.67,8.32 4.34,9.64 4,11 3.01,11 2.02,11 1,11 -0.28317892,7.1504632 -0.06643637,4.0526187 0,0 Z"
         fill="#c01d20"
         transform="translate(138,772)"
         id="path85" />
      <path
         d="M 0,0 C 1.32,0.33 2.64,0.66 4,1 4.33,2.65 4.66,4.3 5,6 4.01,6.66 3.02,7.32 2,8 1.34,5.36 0.68,2.72 0,0 Z"
         fill="#bf1e20"
         transform="translate(661,702)"
         id="path89" />
      <path
         d="M 0,0 C 0,3.517163 -0.82445585,4.3712175 -3,7 -4.32,6.34 -5.64,5.68 -7,5 -4.69,3.35 -2.38,1.7 0,0 Z"
         fill="#f2452e"
         transform="translate(268,361)"
         id="path94" />
      <path
         d="M 0,0 C 0,0.66 0,1.32 0,2 -0.66,2 -1.32,2 -2,2 -2.33,3.32 -2.66,4.64 -3,6 -3.99,5.34 -4.98,4.68 -6,4 -5.67,3.01 -5.34,2.02 -5,1 -2,0 -2,0 0,0 Z"
         fill="#f44730"
         transform="translate(412,290)"
         id="path95" />
      <path
         d="M 0,0 C 1.9375,0.6875 1.9375,0.6875 4,2 4.75,4.625 4.75,4.625 5,7 4.01,7.495 4.01,7.495 3,8 0,3.375 0,3.375 0,0 Z"
         fill="#ed8e48"
         transform="translate(731,578)"
         id="path97" />
    </g>
  </g>
</svg>
