<?xml version="1.0" encoding="UTF-8" standalone="no"?>
<!-- Generator: Adobe Illustrator 27.5.0, SVG Export Plug-In . SVG Version: 6.00 Build 0)  -->

<svg
   version="1.1"
   x="0px"
   y="0px"
   viewBox="0 0 500 500"
   style="enable-background:new 0 0 500 500;"
   xml:space="preserve"
   id="svg7"
   sodipodi:docname="6987142_3486054.svg"
   inkscape:version="1.4.2 (f4327f4, 2025-05-13)"
   xmlns:inkscape="http://www.inkscape.org/namespaces/inkscape"
   xmlns:sodipodi="http://sodipodi.sourceforge.net/DTD/sodipodi-0.dtd"
   xmlns="http://www.w3.org/2000/svg"
   xmlns:svg="http://www.w3.org/2000/svg"><defs
   id="defs7" /><sodipodi:namedview
   id="namedview7"
   pagecolor="#ffffff"
   bordercolor="#000000"
   borderopacity="0.25"
   inkscape:showpageshadow="2"
   inkscape:pageopacity="0.0"
   inkscape:pagecheckerboard="0"
   inkscape:deskcolor="#d1d1d1"
   inkscape:zoom="1.1412703"
   inkscape:cx="190.57711"
   inkscape:cy="331.64798"
   inkscape:window-width="1920"
   inkscape:window-height="1009"
   inkscape:window-x="-8"
   inkscape:window-y="-8"
   inkscape:window-maximized="1"
   inkscape:current-layer="OBJECTS" />

<g
   id="OBJECTS">
	
	
	<path
   style="fill:#800000;stroke-width:2.87131"
   d="M 384.31147,336.14517 226.47819,427.2692 V 407.73852 L 367.39656,326.37983 V 173.60868 l -5.74263,3.31637 v 146.14128 l -135.17574,78.04233 v -19.53068 l 118.2637,-68.27986 v -126.6106 l -5.74263,3.31636 v 119.98075 l -112.52107,64.96348 v -19.53068 l 95.60616,-55.19814 V 199.76922 l -5.74263,3.31637 v 93.8202 l -89.86353,51.88178 v -19.53068 l 72.94862,-42.11644 v -74.28952 l -5.74263,3.31637 v 67.65965 l -67.20599,38.80294 v -19.53068 l 50.29682,-29.0376 v -48.12897 l -5.74263,3.31637 v 41.49911 l -44.55419,25.7241 v -17.65284 l 29.26444,-16.89769 V 238.07543 L 250,241.3918 v 17.2164 l -23.52181,13.58132 v -27.16264 l 164.29087,-94.85387 -5.74263,-3.31637 -164.29087,94.85387 v 33.7925 l -16.91491,9.76534 v -53.32318 l 164.29374,-94.85387 -5.74263,-3.31637 -164.29087,94.85387 v 59.95305 l -16.91491,9.76534 v -79.4866 l 164.29374,-94.85387 -5.74263,-3.31637 -164.29087,94.85388 v 86.11646 l -16.91491,9.76534 V 205.77888 l 164.29374,-94.85387 -5.74263,-3.31636 -164.29374,94.85387 v 112.277 l -16.91491,9.76534 V 192.69718 L 300.14751,97.84331 294.40488,94.52694 130.11114,189.38368 V 327.82123 L 113.1991,337.5837 V 179.61834 L 277.48996,84.764469 271.74733,81.448101 107.45647,176.30197 V 340.8972 l -15.286879,8.82642 V 165.59771 L 254.83529,71.682761 249.12425,68.349165 86.426962,162.28421 v 197.38851 l 21.029508,-12.14279 v 24.28271 l 22.65467,-13.07884 v 26.16055 l 22.65754,-13.08171 v 26.16054 l 22.65754,-13.0817 v 26.16054 l 22.65754,-13.08171 v 26.16055 l 22.65755,-13.08171 V 437.2097 L 390.05984,339.45293 V 160.52697 l -5.74263,3.31637 v 172.30183 z m -163.57591,42.11931 -16.91491,9.76534 v -19.53068 l 16.91491,-9.76534 z m 0,-26.16341 -16.91491,9.76534 v -19.53068 l 16.91491,-9.76534 z m -39.56958,-22.84418 16.91491,-9.76534 v 19.53068 l -16.91491,9.76534 z m -5.74263,22.84418 -16.91491,9.76534 v -19.53068 l 16.91491,-9.76534 z m 22.65467,-6.44898 v 19.53068 l -16.91491,9.76534 v -19.53068 z m 22.65754,-19.71157 -16.91491,9.76534 v -19.53068 l 16.91491,-9.76534 z m 0,-43.81339 v 17.65285 l -16.91491,9.76534 v -17.65285 z m -22.65754,13.08171 v 17.65284 l -16.91491,9.76534 v -17.65284 z m -22.65467,13.08171 v 17.65284 l -16.91491,9.76534 v -17.65284 z m -22.65754,13.07884 v 17.65284 l -16.91491,9.76534 v -17.65284 z m -39.56671,40.49989 v -17.65284 l 16.91204,-9.76247 v 17.65284 z m 22.6518,13.07883 v -19.53068 l 16.91491,-9.76534 v 19.53068 z m 22.65754,13.08171 v -19.53068 l 16.91491,-9.76534 v 19.53068 z m 22.65754,13.07884 v -19.53068 l 16.91491,-9.76534 v 19.53068 z m 22.65467,13.08171 v -19.53068 l 16.91491,-9.76534 v 19.53068 z"
   id="path6" />
	
</g>
</svg>
